<?xml version="1.0" standalone="no"?>
<!DOCTYPE svg PUBLIC "-//W3C//DTD SVG 1.1//EN" "http://www.w3.org/Graphics/SVG/1.1/DTD/svg11.dtd" >
<svg xmlns="http://www.w3.org/2000/svg" xmlns:xlink="http://www.w3.org/1999/xlink" version="1.1">
<metadata></metadata>
<defs>
<font id="aileronsregular" horiz-adv-x="911" >
<font-face units-per-em="2048" ascent="2034" descent="-14" />
<missing-glyph horiz-adv-x="503" />
<glyph horiz-adv-x="0" />
<glyph unicode="&#xd;" horiz-adv-x="0" />
<glyph horiz-adv-x="0" />
<glyph horiz-adv-x="0" />
<glyph unicode=" "  horiz-adv-x="503" />
<glyph unicode="&#x09;" horiz-adv-x="503" />
<glyph unicode="&#xa0;" horiz-adv-x="503" />
<glyph unicode="!" horiz-adv-x="786" d="M383 41v135h119q6 0 12 -2q12 -4 12 -20v-154h-100q-16 0 -29.5 12.5t-13.5 28.5zM383 319v1090h100q18 0 30.5 -12.5t12.5 -30.5v-8v-1059h-118q-6 0 -13 2q-12 4 -12 18z" />
<glyph unicode="#" d="M168 801h211q10 0 17 2t12 2l24 12q2 0 6 2q8 4 17 4q10 0 18 -4q4 -2 6 -2l25 -10q4 -2 11 -4t17 -2h209q-6 -16 -17 -43t-15 -33q-4 -10 -17.5 -19.5t-40.5 -9.5h-51q-14 0 -16 -4q-2 -2 -2 -8v-2l2 -2h49q-10 -20 -17.5 -38.5t-11.5 -23.5q-4 -12 -18 -18l-105 -43 l-8 -4q-4 -2 -18 -2t-19 2l-8 4l-102 43q-10 4 -13.5 9t-7.5 9q-4 6 -12 27t-14 35h51v4q0 6 -2 8q-4 4 -17 4h-53q-27 0 -39 9.5t-16 19.5q-4 6 -15.5 32.5t-19.5 43.5z" />
<glyph unicode="$" d="M168 801h211q10 0 17 2t12 2l24 12q2 0 6 2q8 4 17 4q10 0 18 -4q4 -2 6 -2l25 -10q4 -2 11 -4t17 -2h209q-6 -16 -17 -43t-15 -33q-4 -10 -17.5 -19.5t-40.5 -9.5h-51q-14 0 -16 -4q-2 -2 -2 -8v-2l2 -2h49q-10 -20 -17.5 -38.5t-11.5 -23.5q-4 -12 -18 -18l-105 -43 l-8 -4q-4 -2 -18 -2t-19 2l-8 4l-102 43q-10 4 -13.5 9t-7.5 9q-4 6 -12 27t-14 35h51v4q0 6 -2 8q-4 4 -17 4h-53q-27 0 -39 9.5t-16 19.5q-4 6 -15.5 32.5t-19.5 43.5z" />
<glyph unicode="%" d="M168 801h211q10 0 17 2t12 2l24 12q2 0 6 2q8 4 17 4q10 0 18 -4q4 -2 6 -2l25 -10q4 -2 11 -4t17 -2h209q-6 -16 -17 -43t-15 -33q-4 -10 -17.5 -19.5t-40.5 -9.5h-51q-14 0 -16 -4q-2 -2 -2 -8v-2l2 -2h49q-10 -20 -17.5 -38.5t-11.5 -23.5q-4 -12 -18 -18l-105 -43 l-8 -4q-4 -2 -18 -2t-19 2l-8 4l-102 43q-10 4 -13.5 9t-7.5 9q-4 6 -12 27t-14 35h51v4q0 6 -2 8q-4 4 -17 4h-53q-27 0 -39 9.5t-16 19.5q-4 6 -15.5 32.5t-19.5 43.5z" />
<glyph unicode="&#x26;" d="M168 801h211q10 0 17 2t12 2l24 12q2 0 6 2q8 4 17 4q10 0 18 -4q4 -2 6 -2l25 -10q4 -2 11 -4t17 -2h209q-6 -16 -17 -43t-15 -33q-4 -10 -17.5 -19.5t-40.5 -9.5h-51q-14 0 -16 -4q-2 -2 -2 -8v-2l2 -2h49q-10 -20 -17.5 -38.5t-11.5 -23.5q-4 -12 -18 -18l-105 -43 l-8 -4q-4 -2 -18 -2t-19 2l-8 4l-102 43q-10 4 -13.5 9t-7.5 9q-4 6 -12 27t-14 35h51v4q0 6 -2 8q-4 4 -17 4h-53q-27 0 -39 9.5t-16 19.5q-4 6 -15.5 32.5t-19.5 43.5z" />
<glyph unicode="(" horiz-adv-x="839" d="M346 6v1389q2 25 10 47q8 18 22.5 33.5t43.5 15.5h235q-12 -29 -27.5 -62.5t-19.5 -42.5q-8 -14 -25.5 -26t-52.5 -12h-20q-10 0 -16.5 -7.5t-6.5 -17.5v-1245q0 -10 6.5 -17.5t16.5 -7.5h20q35 0 52.5 -12t25.5 -27q4 -10 19.5 -42.5t27.5 -61.5h-235q-29 0 -43 14.5 t-23 32.5q-8 23 -10 49z" />
<glyph unicode=")" horiz-adv-x="839" d="M346 -90q12 29 27.5 61.5t19.5 42.5q6 14 23.5 26.5t52.5 12.5h20q10 0 16.5 7.5t6.5 17.5v1245q0 10 -6 17.5t-17 7.5h-20q-35 0 -52.5 12t-23.5 26q-4 8 -19.5 42t-27.5 63h236q29 0 43 -15.5t22 -33.5q8 -23 10 -47v-1389q-2 -27 -10 -49q-8 -18 -22.5 -32.5 t-42.5 -14.5h-236z" />
<glyph unicode="*" d="M168 801h211q10 0 17 2t12 2l24 12q2 0 6 2q8 4 17 4q10 0 18 -4q4 -2 6 -2l25 -10q4 -2 11 -4t17 -2h209q-6 -16 -17 -43t-15 -33q-4 -10 -17.5 -19.5t-40.5 -9.5h-51q-14 0 -16 -4q-2 -2 -2 -8v-2l2 -2h49q-10 -20 -17.5 -38.5t-11.5 -23.5q-4 -12 -18 -18l-105 -43 l-8 -4q-4 -2 -18 -2t-19 2l-8 4l-102 43q-10 4 -13.5 9t-7.5 9q-4 6 -12 27t-14 35h51v4q0 6 -2 8q-4 4 -17 4h-53q-27 0 -39 9.5t-16 19.5q-4 6 -15.5 32.5t-19.5 43.5z" />
<glyph unicode="+" horiz-adv-x="32" />
<glyph unicode="," horiz-adv-x="600" d="M193 41v113q0 16 12 20q6 2 12 2h119v-170q-2 -35 -14 -61q-10 -23 -34 -41.5t-67 -18.5v43q12 0 21 6q8 4 14 15.5t4 32.5v18h-24q-16 0 -29.5 12.5t-13.5 28.5z" />
<glyph unicode="-" horiz-adv-x="854" d="M317 623v98q0 18 13.5 31.5t29.5 13.5h232v-100q0 -18 -12.5 -30.5t-30.5 -12.5h-232z" />
<glyph unicode="." horiz-adv-x="505" d="M98 41v135h119q6 0 12 -2q12 -4 13 -20v-154h-101q-16 0 -29.5 12.5t-13.5 28.5z" />
<glyph unicode="/" horiz-adv-x="948" d="M213 -53l360 1444q8 35 25.5 41t22.5 6h108l-360 -1444q-10 -35 -27.5 -41t-22.5 -6h-106z" />
<glyph unicode="0" horiz-adv-x="956" d="M258 166v1065q0 74 52 126t126 52h90q70 -4 121 -55t51 -123v-1065q0 -37 -13 -67.5t-36.5 -54.5t-55.5 -38t-67 -16h-90q-74 0 -126 51t-52 125zM401 193q0 -33 22.5 -55.5t53.5 -22.5q33 0 55.5 22.5t22.5 55.5v1013q0 33 -22.5 55.5t-55.5 22.5q-31 0 -53.5 -22.5 t-22.5 -55.5v-1013z" />
<glyph unicode="1" horiz-adv-x="956" d="M352 1403h176q29 2 43.5 -12.5t22.5 -32.5q8 -23 10 -51v-1307h-100q-18 0 -30.5 12.5t-12.5 30.5v1184q0 12 -5 21t-22 14q-23 4 -34 14t-17 20q-4 10 -13.5 43t-17.5 64z" />
<glyph unicode="2" horiz-adv-x="956" d="M231 0v121q0 41 9.5 83t21.5 79q12 41 31 84l172 403q23 51 35 89t18 65q8 31 10 51v233q0 33 -22.5 54.5t-52.5 21.5q-33 0 -55.5 -21.5t-22.5 -54.5l2 -157q-29 12 -62.5 27.5t-42.5 19.5q-16 8 -28.5 25.5t-12.5 52.5v55q0 37 13.5 68.5t37 55t55.5 38t66 16.5h91 q74 0 126 -52t52 -126v-240q0 -37 -5 -68.5t-12 -54.5q-8 -27 -16 -47l-201 -459q-23 -51 -35 -87.5t-18 -61.5q-8 -29 -8 -49v-23h346q-12 -29 -26.5 -60.5t-18.5 -41.5q-8 -14 -26.5 -26.5t-53.5 -12.5h-367z" />
<glyph unicode="3" horiz-adv-x="956" d="M258 168v59q0 35 12.5 52.5t26.5 25.5q10 4 44 19.5t60 27.5v-162q0 -31 22.5 -53t53.5 -22t51.5 20.5t24.5 48.5v375q-4 27 -20.5 45.5t-43.5 22.5v2q-18 0 -30.5 12t-12.5 29v100h31q31 0 51.5 20.5t24.5 49.5v374q-4 29 -24.5 49.5t-51.5 20.5t-53.5 -22.5 t-22.5 -53.5v-161q-27 12 -60.5 27.5t-43.5 19.5q-14 6 -26.5 24.5t-12.5 52.5v60q0 74 52 126t126 52h90q70 -4 121 -55t51 -123v-410q-4 -72 -49 -121q23 -25 35 -55.5t14 -64.5v-412q0 -37 -13 -68.5t-36.5 -55.5t-55.5 -38t-67 -16h-90q-74 0 -126 52t-52 126z" />
<glyph unicode="4" horiz-adv-x="956" d="M188 401l275 957q10 33 26.5 38t22.5 5h106v-993h148q-12 -29 -28.5 -65t-20.5 -46q-8 -14 -26.5 -26.5t-53.5 -14.5h-19v-256h-100q-18 0 -30.5 12.5t-12.5 30.5v213h-156q-37 0 -52 13.5t-23 27.5q-2 6 -11 18q-6 10 -16 31t-29 55zM338 408h137v473z" />
<glyph unicode="5" horiz-adv-x="956" d="M252 166v188q0 35 12 52.5t27 23.5q10 4 44 20.5t60 26.5l2 -102h-2v-182q0 -31 22.5 -53.5t55.5 -22.5q31 0 53.5 22.5t22.5 53.5v483q0 33 -22.5 55.5t-53.5 22.5h-147q-31 0 -52.5 21.5t-21.5 51.5v312v168q2 25 10 47q8 16 22.5 31.5t43.5 15.5h374 q-10 -27 -26.5 -60.5t-20.5 -44.5q-6 -14 -23.5 -26.5t-51.5 -12.5h-22h-49h-53.5h-35.5q-25 0 -25 -22v-143v-195h119q74 0 125 -52t53 -124v-555q0 -72 -50 -122t-122 -52v-2h-90q-74 0 -125 52t-53 124z" />
<glyph unicode="6" horiz-adv-x="956" d="M258 168v1063q0 74 52 126t126 52h90q70 -4 121 -55t51 -123v-51q0 -35 -12 -56.5t-29 -29.5q-8 -4 -41.5 -19.5t-60.5 -27.5v2v157q0 33 -22.5 55.5t-55.5 22.5q-31 0 -53.5 -22.5t-22.5 -55.5v-311h97q51 0 88 -17.5t60.5 -45t34.5 -62.5t11 -72v-530q0 -37 -13 -68.5 t-37 -56.5t-55.5 -39t-66.5 -14h-84q-74 0 -126 52t-52 126zM401 193q0 -33 22.5 -55.5t53.5 -22.5t51.5 20.5t24.5 48.5v504q-4 29 -24.5 48.5t-51.5 19.5h-76v-563z" />
<glyph unicode="7" horiz-adv-x="956" d="M217 1401h522q-49 -92 -85 -201.5t-62.5 -225.5t-45 -232.5t-30.5 -225.5q-29 -254 -33 -516h-100q-16 0 -29.5 13.5t-13.5 29.5q2 225 22.5 415.5t50 342t62.5 266.5t62 190h-197q-35 0 -52.5 12.5t-23.5 26.5q-4 10 -20.5 44t-26.5 61z" />
<glyph unicode="8" horiz-adv-x="956" d="M258 168v395v38t6 41.5t19.5 35.5t38.5 22q-25 6 -38.5 22.5t-18.5 36t-6 40t-1 39.5v393q0 72 50 123t122 55h96q70 -4 121 -55t51 -123v-393q0 -18 -1 -39t-6 -40.5t-17 -35.5t-37 -23q25 -6 38 -22t18 -35.5t5 -41v-38.5v-395q0 -37 -13 -68.5t-36.5 -55.5t-55.5 -38 t-67 -16h-96q-72 4 -122 55t-50 123zM401 184q4 -29 26 -48t50 -19q31 0 51.5 19.5t24.5 47.5v391q-4 29 -24.5 49.5t-51.5 20.5q-29 0 -50 -20.5t-26 -49.5v-391zM401 823q4 -29 26 -48t50 -19q31 0 51.5 19.5t24.5 47.5v391q-4 29 -24.5 49.5t-51.5 20.5q-29 0 -50 -20.5 t-26 -49.5v-391z" />
<glyph unicode="9" horiz-adv-x="956" d="M260 168v2v59q0 35 12.5 52.5t26.5 23.5q10 4 41 21.5t59 29.5v-163q0 -33 21.5 -54.5t54.5 -21.5t54.5 21.5t21.5 54.5v370h-90q-63 0 -103.5 18.5t-62 47t-28.5 64.5t-7 71v467q0 37 13.5 68.5t37 55t55 38t66.5 16.5h86q74 0 125 -52t51 -126v-1063q0 -74 -51 -126 t-125 -52h-86q-72 2 -122 54t-50 124zM399 764q0 -39 16.5 -57.5t59.5 -18.5h76v518q0 33 -21.5 55.5t-54.5 22.5q-29 0 -50.5 -20.5t-25.5 -49.5v-450z" />
<glyph unicode=":" horiz-adv-x="628" d="M227 41q0 -16 13.5 -28.5t29.5 -12.5h101v154q0 16 -13 20q-6 2 -12 2h-119v-135zM227 547v153h103q16 0 28.5 -12.5t12.5 -30.5v-133h-119q-6 0 -12 2q-12 4 -13 21z" />
<glyph unicode=";" horiz-adv-x="602" d="M201 43q0 -18 12 -30.5t29 -12.5h24v-18q2 -35 -16 -48q-8 -6 -21 -6v-43q43 0 66.5 18.5t34.5 41.5q12 27 14 61v170h-119q-6 0 -12 -2q-12 -4 -12 -20v-111zM203 547v153h100q16 0 29.5 -12t13.5 -29v-135h-119q-6 0 -12 2q-12 4 -12 21z" />
<glyph unicode="&#x3c;" d="M168 801h211q10 0 17 2t12 2l24 12q2 0 6 2q8 4 17 4q10 0 18 -4q4 -2 6 -2l25 -10q4 -2 11 -4t17 -2h209q-6 -16 -17 -43t-15 -33q-4 -10 -17.5 -19.5t-40.5 -9.5h-51q-14 0 -16 -4q-2 -2 -2 -8v-2l2 -2h49q-10 -20 -17.5 -38.5t-11.5 -23.5q-4 -12 -18 -18l-105 -43 l-8 -4q-4 -2 -18 -2t-19 2l-8 4l-102 43q-10 4 -13.5 9t-7.5 9q-4 6 -12 27t-14 35h51v4q0 6 -2 8q-4 4 -17 4h-53q-27 0 -39 9.5t-16 19.5q-4 6 -15.5 32.5t-19.5 43.5z" />
<glyph unicode="=" d="M168 801h211q10 0 17 2t12 2l24 12q2 0 6 2q8 4 17 4q10 0 18 -4q4 -2 6 -2l25 -10q4 -2 11 -4t17 -2h209q-6 -16 -17 -43t-15 -33q-4 -10 -17.5 -19.5t-40.5 -9.5h-51q-14 0 -16 -4q-2 -2 -2 -8v-2l2 -2h49q-10 -20 -17.5 -38.5t-11.5 -23.5q-4 -12 -18 -18l-105 -43 l-8 -4q-4 -2 -18 -2t-19 2l-8 4l-102 43q-10 4 -13.5 9t-7.5 9q-4 6 -12 27t-14 35h51v4q0 6 -2 8q-4 4 -17 4h-53q-27 0 -39 9.5t-16 19.5q-4 6 -15.5 32.5t-19.5 43.5z" />
<glyph unicode="&#x3e;" d="M168 801h211q10 0 17 2t12 2l24 12q2 0 6 2q8 4 17 4q10 0 18 -4q4 -2 6 -2l25 -10q4 -2 11 -4t17 -2h209q-6 -16 -17 -43t-15 -33q-4 -10 -17.5 -19.5t-40.5 -9.5h-51q-14 0 -16 -4q-2 -2 -2 -8v-2l2 -2h49q-10 -20 -17.5 -38.5t-11.5 -23.5q-4 -12 -18 -18l-105 -43 l-8 -4q-4 -2 -18 -2t-19 2l-8 4l-102 43q-10 4 -13.5 9t-7.5 9q-4 6 -12 27t-14 35h51v4q0 6 -2 8q-4 4 -17 4h-53q-27 0 -39 9.5t-16 19.5q-4 6 -15.5 32.5t-19.5 43.5z" />
<glyph unicode="?" horiz-adv-x="892" d="M236 1176v55q0 37 13 68.5t36.5 56t54.5 39t68 14.5h90q74 0 126 -52t52 -126v-232q0 -31 -3 -54t-7 -40q-6 -20 -11 -35q-39 -111 -63.5 -182.5t-40.5 -114.5q-18 -51 -31 -75q-4 -8 -6 -19q-2 -10 -3 -21.5t-1 -21.5v-137h-119q-6 0 -12 2q-12 4 -12 21v124q0 23 14 62 q57 147 88 237.5t45 141.5q16 59 16 88v235q0 31 -21.5 52.5t-53.5 21.5q-31 0 -53.5 -21.5t-22.5 -52.5v-159q-27 12 -60.5 28.5t-44.5 20.5q-14 6 -26 23.5t-12 52.5zM367 0h100q16 0 29.5 12.5t13.5 30.5v133h-119q-6 0 -12 -2q-12 -4 -12 -20v-154z" />
<glyph unicode="@" d="M168 801h211q10 0 17 2t12 2l24 12q2 0 6 2q8 4 17 4q10 0 18 -4q4 -2 6 -2l25 -10q4 -2 11 -4t17 -2h209q-6 -16 -17 -43t-15 -33q-4 -10 -17.5 -19.5t-40.5 -9.5h-51q-14 0 -16 -4q-2 -2 -2 -8v-2l2 -2h49q-10 -20 -17.5 -38.5t-11.5 -23.5q-4 -12 -18 -18l-105 -43 l-8 -4q-4 -2 -18 -2t-19 2l-8 4l-102 43q-10 4 -13.5 9t-7.5 9q-4 6 -12 27t-14 35h51v4q0 6 -2 8q-4 4 -17 4h-53q-27 0 -39 9.5t-16 19.5q-4 6 -15.5 32.5t-19.5 43.5z" />
<glyph unicode="A" horiz-adv-x="952" d="M139 0l213 1401h76q47 0 60.5 -23.5t17.5 -52.5l201 -1325h-158l-125 967l-127 -967h-158z" />
<glyph unicode="B" horiz-adv-x="952" d="M236 0v696v4v2v3v696h262q37 0 69.5 -13.5t56 -37t38 -55t14.5 -68.5v-412q0 -35 -12.5 -55.5t-28.5 -34.5q-18 -17 -41 -25q23 -8 41 -24q16 -14 28.5 -36t12.5 -54v-410q0 -74 -52.5 -125t-125.5 -51h-262zM379 143h76q31 0 53 15.5t22 56.5v338q0 47 -22.5 64.5 t-52.5 17.5h-76v-492zM379 766h76q31 0 53 17.5t22 64.5v338q0 41 -22.5 56t-52.5 15h-76v-491z" />
<glyph unicode="C" horiz-adv-x="933" d="M229 168v530v2v531q0 74 51.5 126t125.5 52h90q72 -4 122 -55t50 -123v-211q0 -35 -12.5 -52.5t-26.5 -25.5q-10 -4 -43 -19.5t-62 -27.5v313q0 31 -22.5 50.5t-52.5 19.5q-33 0 -54.5 -19.5t-21.5 -50.5v-508v-2v-508q0 -31 21.5 -53t54.5 -22q31 0 53 22.5t22 52.5v189 q0 35 12.5 52.5t26.5 25.5q10 4 44 19.5t61 27.5v-336q0 -72 -50.5 -123t-121.5 -55h-90q-74 0 -125.5 52t-51.5 126z" />
<glyph unicode="D" horiz-adv-x="966" d="M231 0v1401h258q199 0 199 -201v-997q0 -203 -199 -203h-258zM373 133h96q35 0 55.5 21.5t20.5 70.5v951q0 49 -20.5 70.5t-55.5 21.5h-96v-1135z" />
<glyph unicode="E" horiz-adv-x="718" d="M51 0v1360q0 18 13.5 29.5t29.5 11.5h375q14 0 10 -15.5t-15 -34t-24.5 -35t-17.5 -18.5q-6 -14 -23.5 -27.5t-52.5 -13.5h-117q-14 0 -24 -9t-10 -23v-418h217q14 0 11 -15.5t-14.5 -35t-25.5 -35.5t-18 -19q-6 -16 -23.5 -28t-52.5 -12l-60 2q-14 0 -24 -10.5 t-10 -24.5v-486h301q14 0 10 -15t-15.5 -34.5t-24.5 -36t-17 -18.5q-6 -14 -23.5 -26.5t-52.5 -12.5h-322z" />
<glyph unicode="F" horiz-adv-x="788" d="M117 0v1360q0 16 13 28.5t30 12.5h418q-12 -27 -27.5 -60.5t-20.5 -42.5q-8 -14 -24.5 -27.5t-50.5 -13.5h-160q-14 0 -24.5 -9t-10.5 -23v-439l256 2q-12 -29 -27.5 -62.5t-19.5 -43.5q-8 -14 -25.5 -26.5t-52.5 -12.5h-96q-14 0 -24.5 -9t-10.5 -24v-567 q0 -18 -12 -30.5t-31 -12.5h-100z" />
<glyph unicode="G" horiz-adv-x="940" d="M231 168v1063q0 74 51.5 126t125.5 52h90q72 -4 122 -55t50 -123v-90q0 -35 -12.5 -52.5t-26.5 -25.5q-10 -4 -44 -19.5t-61 -27.5v192q0 31 -22.5 53.5t-52.5 22.5q-33 0 -54.5 -22.5t-21.5 -53.5v-1018q0 -31 21.5 -53t54.5 -22q31 0 53 22.5t22 52.5v416h-6 q-10 0 -18 6q-8 4 -16.5 13.5t-16.5 25.5l-49 99h180q31 0 50.5 -17.5t19.5 -58.5v-506q0 -72 -50.5 -123t-121.5 -55h-90q-74 0 -125.5 52t-51.5 126z" />
<glyph unicode="H" horiz-adv-x="978" d="M240 0v1346q0 18 12 36.5t45 18.5h86v-565q0 -31 12.5 -41.5t36.5 -10.5h141v617h86q33 0 45.5 -18.5t12.5 -36.5v-1346h-144v610q-4 31 -34 31h-156v-641h-143z" />
<glyph unicode="I" horiz-adv-x="624" d="M221 31v1370h86q33 0 45.5 -19.5t12.5 -35.5v-1346h-103q-25 0 -32 10t-9 21z" />
<glyph unicode="J" horiz-adv-x="843" d="M147 168v27q0 35 12.5 52t28.5 25q8 4 40 17.5t61 25.5v-122q0 -33 21.5 -55.5t54.5 -22.5q31 0 53 22.5t22 55.5v1208h84q35 0 47.5 -19.5t12.5 -35.5v-1178q0 -72 -50.5 -123t-121.5 -55h-90q-74 0 -124.5 52t-50.5 126z" />
<glyph unicode="K" horiz-adv-x="954" d="M236 0v1352q0 35 17 45t30 10h94v-512l178 508h147l-223 -633l242 -770h-152l-192 629v-629h-141z" />
<glyph unicode="L" horiz-adv-x="980" d="M291 0v1401h100q18 0 30.5 -12.5t12.5 -30.5v-1215h324q-10 -29 -25.5 -61.5t-19.5 -42.5q-8 -14 -25.5 -26.5t-52.5 -12.5h-344z" />
<glyph unicode="M" horiz-adv-x="1087" d="M197 0v1401h88q16 0 28 -6q10 -4 20.5 -15.5t14.5 -29.5l166 -805l158 805q2 6 13 28.5t50 22.5h90v-1401h-143v723l-109 -479h-43q-31 0 -51 13t-31.5 31.5t-16.5 37t-7 30.5l-84 367v-723h-143z" />
<glyph unicode="N" horiz-adv-x="946" d="M225 0v1401h66q61 0 78.5 -23.5t23.5 -54.5l152 -729v807h141v-1401h-65q-29 0 -47.5 10t-28.5 24.5t-15.5 30t-7.5 25.5l-153 692v-782h-144z" />
<glyph unicode="O" horiz-adv-x="966" d="M225 166v1065q0 74 52.5 126t125.5 52h111q70 -4 121 -55t51 -123v-1065q0 -37 -13.5 -67.5t-37 -54.5t-55 -38t-66.5 -16h-111q-74 0 -126 51t-52 125zM369 193q0 -33 21.5 -54.5t53.5 -23.5h21q33 0 55.5 22.5t22.5 55.5v1013q0 33 -22.5 55.5t-55.5 22.5h-23 q-31 -2 -52 -23.5t-21 -54.5v-1013z" />
<glyph unicode="P" horiz-adv-x="909" d="M264 31v1370h250q37 0 69.5 -13.5t58.5 -38t41 -56t15 -68.5v-363q0 -102 -51 -167.5t-155 -65.5h-84v-629h-103q-27 0 -34 11.5t-7 19.5zM408 772h75q29 0 50.5 19.5t25.5 48.5v356q-4 29 -25.5 49.5t-50.5 20.5h-75v-494z" />
<glyph unicode="Q" horiz-adv-x="972" d="M227 166v1065q0 74 52.5 126t126.5 52h108q72 -4 122 -55t50 -123v-1086l72 -153h-113q-10 0 -17 5t-18 28q-23 -29 -54.5 -32t-51.5 -3h-98q-37 0 -69 13t-56.5 38t-39 56.5t-14.5 68.5zM373 193q0 -33 21.5 -54.5t51.5 -23.5h21q16 0 34.5 7t30.5 25l-40 84 q-8 16 -7 29q2 10 10.5 19.5t34.5 9.5h13v917q0 33 -22.5 55.5t-53.5 22.5h-21q-31 -2 -52 -23.5t-21 -54.5v-1013z" />
<glyph unicode="R" horiz-adv-x="933" d="M236 0v1401h262q37 0 69.5 -13.5t56 -37t38 -55t14.5 -68.5v-434q0 -41 -9.5 -66t-19.5 -37q-12 -14 -26 -20q14 -8 26 -27q10 -16 19.5 -42t9.5 -64v-537h-146v512q0 53 -22.5 71.5t-52.5 18.5h-76v-602h-143zM379 735h76q31 0 53 17.5t22 64.5v369q0 41 -22.5 56 t-52.5 15h-76v-522z" />
<glyph unicode="S" horiz-adv-x="835" d="M129 166v143q0 35 12.5 52.5t26.5 25.5q10 4 43 19.5t61 27.5v-244q0 -31 22.5 -52t53.5 -21q33 0 54.5 21.5t21.5 54.5v157q-2 25 -10 53q-6 25 -17.5 60t-34.5 76l-172 321q-18 39 -30 76q-12 33 -21.5 72t-9.5 73v144q0 37 14.5 69.5t38 58t56 41t69.5 15.5h90 q35 0 67 -15.5t54.5 -41t36.5 -59t14 -68.5v-54q0 -35 -12.5 -52t-26.5 -25q-10 -4 -43.5 -19.5t-60.5 -27.5v159q0 33 -22.5 55.5t-55.5 22.5q-31 0 -53.5 -22.5t-22.5 -55.5v-133q2 -25 11 -53q6 -25 18 -59.5t35 -75.5l170 -320q16 -39 31 -76q12 -33 22 -71.5t10 -73.5 v-176q0 -74 -52 -126t-126 -52h-90q-72 4 -122 54t-50 122z" />
<glyph unicode="T" horiz-adv-x="757" d="M-78 1260v98q0 18 12.5 30.5t30.5 12.5h580q-12 -27 -27.5 -60.5t-19.5 -42.5q-6 -14 -23.5 -26t-52.5 -12h-113q-16 0 -25.5 -10.5t-9.5 -24.5v-1225h-110q-25 0 -32 11.5t-9 19.5v1229h-201z" />
<glyph unicode="U" horiz-adv-x="962" d="M225 166v1196q0 16 13.5 27.5t29.5 11.5h101v-1208q0 -31 21.5 -53.5t51.5 -22.5h23q33 0 55.5 21.5t22.5 54.5v1208h143v-1235q-2 -72 -51 -122t-121 -54h-111q-37 0 -69.5 14t-56 38t-38 55.5t-14.5 68.5z" />
<glyph unicode="V" horiz-adv-x="888" d="M72 1401h110q8 0 22.5 -9.5t20.5 -43.5l133 -879l144 932h143l-215 -1401h-61h-11q-27 0 -43 13.5t-25 30.5t-12.5 33.5t-3.5 20.5z" />
<glyph unicode="W" horiz-adv-x="1054" d="M31 1401h112q25 0 33 -10.5t10 -18.5l97 -768l69 486q10 61 33 86.5t92 25.5h17l94 -598l94 768q2 8 10 18.5t31 10.5h115l-170 -1401h-136l-96 711l-98 -711h-131z" />
<glyph unicode="X" horiz-adv-x="892" d="M61 0l222 741l-189 660h113q4 0 24.5 -6t30.5 -41l103 -375l96 375q10 35 30.5 41t24.5 6h115l-182 -662l208 -739h-155l-131 508l-144 -508h-166z" />
<glyph unicode="Y" horiz-adv-x="897" d="M170 1401h104q4 0 22.5 -6t25.5 -41l92 -533l92 533q4 33 22.5 40t22.5 7h106l-172 -817v-584h-100q-18 0 -30.5 12.5t-12.5 28.5v543z" />
<glyph unicode="Z" horiz-adv-x="1003" d="M133 0l412 1221q4 14 -2 24t-25 10h-164q-35 0 -52 12.5t-23 26.5q-4 10 -19.5 44t-28.5 61h543l-412 -1219q-4 -16 3.5 -26.5t21.5 -10.5h391l-47 -104q-6 -14 -24.5 -26.5t-53.5 -12.5h-520z" />
<glyph unicode="[" horiz-adv-x="839" d="M346 6v1389q2 25 10 47q8 18 22.5 33.5t43.5 15.5h235q-12 -29 -27.5 -62.5t-19.5 -42.5q-8 -14 -25.5 -26t-52.5 -12h-20q-10 0 -16.5 -7.5t-6.5 -17.5v-1245q0 -10 6.5 -17.5t16.5 -7.5h20q35 0 52.5 -12t25.5 -27q4 -10 19.5 -42.5t27.5 -61.5h-235q-29 0 -43 14.5 t-23 32.5q-8 23 -10 49z" />
<glyph unicode="\" horiz-adv-x="923" d="M213 1438h106q4 0 21.5 -6.5t28.5 -40.5l360 -1444h-108q-4 0 -21.5 6t-26.5 41z" />
<glyph unicode="]" horiz-adv-x="839" d="M346 -90q12 29 27.5 61.5t19.5 42.5q6 14 23.5 26.5t52.5 12.5h20q10 0 16.5 7.5t6.5 17.5v1245q0 10 -6 17.5t-17 7.5h-20q-35 0 -52.5 12t-23.5 26q-4 8 -19.5 42t-27.5 63h236q29 0 43 -15.5t22 -33.5q8 -23 10 -47v-1389q-2 -27 -10 -49q-8 -18 -22.5 -32.5 t-42.5 -14.5h-236z" />
<glyph unicode="^" d="M168 801h211q10 0 17 2t12 2l24 12q2 0 6 2q8 4 17 4q10 0 18 -4q4 -2 6 -2l25 -10q4 -2 11 -4t17 -2h209q-6 -16 -17 -43t-15 -33q-4 -10 -17.5 -19.5t-40.5 -9.5h-51q-14 0 -16 -4q-2 -2 -2 -8v-2l2 -2h49q-10 -20 -17.5 -38.5t-11.5 -23.5q-4 -12 -18 -18l-105 -43 l-8 -4q-4 -2 -18 -2t-19 2l-8 4l-102 43q-10 4 -13.5 9t-7.5 9q-4 6 -12 27t-14 35h51v4q0 6 -2 8q-4 4 -17 4h-53q-27 0 -39 9.5t-16 19.5q-4 6 -15.5 32.5t-19.5 43.5z" />
<glyph unicode="_" d="M168 801h211q10 0 17 2t12 2l24 12q2 0 6 2q8 4 17 4q10 0 18 -4q4 -2 6 -2l25 -10q4 -2 11 -4t17 -2h209q-6 -16 -17 -43t-15 -33q-4 -10 -17.5 -19.5t-40.5 -9.5h-51q-14 0 -16 -4q-2 -2 -2 -8v-2l2 -2h49q-10 -20 -17.5 -38.5t-11.5 -23.5q-4 -12 -18 -18l-105 -43 l-8 -4q-4 -2 -18 -2t-19 2l-8 4l-102 43q-10 4 -13.5 9t-7.5 9q-4 6 -12 27t-14 35h51v4q0 6 -2 8q-4 4 -17 4h-53q-27 0 -39 9.5t-16 19.5q-4 6 -15.5 32.5t-19.5 43.5z" />
<glyph unicode="`" horiz-adv-x="561" d="M399 1860q0 8 17 8h108l78 -170h-88q-4 0 -29.5 5t-42.5 40l-41 108q-2 4 -2 9z" />
<glyph unicode="a" horiz-adv-x="952" d="M139 0l213 1401h76q47 0 60.5 -23.5t17.5 -52.5l201 -1325h-158l-125 967l-127 -967h-158z" />
<glyph unicode="b" horiz-adv-x="952" d="M236 0v696v4v2v3v696h262q37 0 69.5 -13.5t56 -37t38 -55t14.5 -68.5v-412q0 -35 -12.5 -55.5t-28.5 -34.5q-18 -17 -41 -25q23 -8 41 -24q16 -14 28.5 -36t12.5 -54v-410q0 -74 -52.5 -125t-125.5 -51h-262zM379 143h76q31 0 53 15.5t22 56.5v338q0 47 -22.5 64.5 t-52.5 17.5h-76v-492zM379 766h76q31 0 53 17.5t22 64.5v338q0 41 -22.5 56t-52.5 15h-76v-491z" />
<glyph unicode="c" horiz-adv-x="933" d="M229 168v530v2v531q0 74 51.5 126t125.5 52h90q72 -4 122 -55t50 -123v-211q0 -35 -12.5 -52.5t-26.5 -25.5q-10 -4 -43 -19.5t-62 -27.5v313q0 31 -22.5 50.5t-52.5 19.5q-33 0 -54.5 -19.5t-21.5 -50.5v-508v-2v-508q0 -31 21.5 -53t54.5 -22q31 0 53 22.5t22 52.5v189 q0 35 12.5 52.5t26.5 25.5q10 4 44 19.5t61 27.5v-336q0 -72 -50.5 -123t-121.5 -55h-90q-74 0 -125.5 52t-51.5 126z" />
<glyph unicode="d" horiz-adv-x="966" d="M231 0v1401h258q199 0 199 -201v-997q0 -203 -199 -203h-258zM373 133h96q35 0 55.5 21.5t20.5 70.5v951q0 49 -20.5 70.5t-55.5 21.5h-96v-1135z" />
<glyph unicode="e" horiz-adv-x="718" d="M51 0v1360q0 18 13.5 29.5t29.5 11.5h375q14 0 10 -15.5t-15 -34t-24.5 -35t-17.5 -18.5q-6 -14 -23.5 -27.5t-52.5 -13.5h-117q-14 0 -24 -9t-10 -23v-418h217q14 0 11 -15.5t-14.5 -35t-25.5 -35.5t-18 -19q-6 -16 -23.5 -28t-52.5 -12l-60 2q-14 0 -24 -10.5 t-10 -24.5v-486h301q14 0 10 -15t-15.5 -34.5t-24.5 -36t-17 -18.5q-6 -14 -23.5 -26.5t-52.5 -12.5h-322z" />
<glyph unicode="f" horiz-adv-x="788" d="M117 0v1360q0 16 13 28.5t30 12.5h418q-12 -27 -27.5 -60.5t-20.5 -42.5q-8 -14 -24.5 -27.5t-50.5 -13.5h-160q-14 0 -24.5 -9t-10.5 -23v-439l256 2q-12 -29 -27.5 -62.5t-19.5 -43.5q-8 -14 -25.5 -26.5t-52.5 -12.5h-96q-14 0 -24.5 -9t-10.5 -24v-567 q0 -18 -12 -30.5t-31 -12.5h-100z" />
<glyph unicode="g" horiz-adv-x="940" d="M231 168v1063q0 74 51.5 126t125.5 52h90q72 -4 122 -55t50 -123v-90q0 -35 -12.5 -52.5t-26.5 -25.5q-10 -4 -44 -19.5t-61 -27.5v192q0 31 -22.5 53.5t-52.5 22.5q-33 0 -54.5 -22.5t-21.5 -53.5v-1018q0 -31 21.5 -53t54.5 -22q31 0 53 22.5t22 52.5v416h-6 q-10 0 -18 6q-8 4 -16.5 13.5t-16.5 25.5l-49 99h180q31 0 50.5 -17.5t19.5 -58.5v-506q0 -72 -50.5 -123t-121.5 -55h-90q-74 0 -125.5 52t-51.5 126z" />
<glyph unicode="h" horiz-adv-x="978" d="M240 0v1346q0 18 12 36.5t45 18.5h86v-565q0 -31 12.5 -41.5t36.5 -10.5h141v617h86q33 0 45.5 -18.5t12.5 -36.5v-1346h-144v610q-4 31 -34 31h-156v-641h-143z" />
<glyph unicode="i" horiz-adv-x="624" d="M221 31v1370h86q33 0 45.5 -19.5t12.5 -35.5v-1346h-103q-25 0 -32 10t-9 21z" />
<glyph unicode="j" horiz-adv-x="843" d="M147 168v27q0 35 12.5 52t28.5 25q8 4 40 17.5t61 25.5v-122q0 -33 21.5 -55.5t54.5 -22.5q31 0 53 22.5t22 55.5v1208h84q35 0 47.5 -19.5t12.5 -35.5v-1178q0 -72 -50.5 -123t-121.5 -55h-90q-74 0 -124.5 52t-50.5 126z" />
<glyph unicode="k" horiz-adv-x="954" d="M236 0v1352q0 35 17 45t30 10h94v-512l178 508h147l-223 -633l242 -770h-152l-192 629v-629h-141z" />
<glyph unicode="l" horiz-adv-x="980" d="M291 0v1401h100q18 0 30.5 -12.5t12.5 -30.5v-1215h324q-10 -29 -25.5 -61.5t-19.5 -42.5q-8 -14 -25.5 -26.5t-52.5 -12.5h-344z" />
<glyph unicode="m" horiz-adv-x="1087" d="M197 0v1401h88q16 0 28 -6q10 -4 20.5 -15.5t14.5 -29.5l166 -805l158 805q2 6 13 28.5t50 22.5h90v-1401h-143v723l-109 -479h-43q-31 0 -51 13t-31.5 31.5t-16.5 37t-7 30.5l-84 367v-723h-143z" />
<glyph unicode="n" horiz-adv-x="946" d="M225 0v1401h66q61 0 78.5 -23.5t23.5 -54.5l152 -729v807h141v-1401h-65q-29 0 -47.5 10t-28.5 24.5t-15.5 30t-7.5 25.5l-153 692v-782h-144z" />
<glyph unicode="o" horiz-adv-x="966" d="M225 166v1065q0 74 52.5 126t125.5 52h111q70 -4 121 -55t51 -123v-1065q0 -37 -13.5 -67.5t-37 -54.5t-55 -38t-66.5 -16h-111q-74 0 -126 51t-52 125zM369 193q0 -33 21.5 -54.5t53.5 -23.5h21q33 0 55.5 22.5t22.5 55.5v1013q0 33 -22.5 55.5t-55.5 22.5h-23 q-31 -2 -52 -23.5t-21 -54.5v-1013z" />
<glyph unicode="p" horiz-adv-x="909" d="M264 31v1370h250q37 0 69.5 -13.5t58.5 -38t41 -56t15 -68.5v-363q0 -102 -51 -167.5t-155 -65.5h-84v-629h-103q-27 0 -34 11.5t-7 19.5zM408 772h75q29 0 50.5 19.5t25.5 48.5v356q-4 29 -25.5 49.5t-50.5 20.5h-75v-494z" />
<glyph unicode="q" horiz-adv-x="972" d="M227 166v1065q0 74 52.5 126t126.5 52h108q72 -4 122 -55t50 -123v-1086l72 -153h-113q-10 0 -17 5t-18 28q-23 -29 -54.5 -32t-51.5 -3h-98q-37 0 -69 13t-56.5 38t-39 56.5t-14.5 68.5zM373 193q0 -33 21.5 -54.5t51.5 -23.5h21q16 0 34.5 7t30.5 25l-40 84 q-8 16 -7 29q2 10 10.5 19.5t34.5 9.5h13v917q0 33 -22.5 55.5t-53.5 22.5h-21q-31 -2 -52 -23.5t-21 -54.5v-1013z" />
<glyph unicode="r" horiz-adv-x="933" d="M236 0v1401h262q37 0 69.5 -13.5t56 -37t38 -55t14.5 -68.5v-434q0 -41 -9.5 -66t-19.5 -37q-12 -14 -26 -20q14 -8 26 -27q10 -16 19.5 -42t9.5 -64v-537h-146v512q0 53 -22.5 71.5t-52.5 18.5h-76v-602h-143zM379 735h76q31 0 53 17.5t22 64.5v369q0 41 -22.5 56 t-52.5 15h-76v-522z" />
<glyph unicode="s" horiz-adv-x="835" d="M129 166v143q0 35 12.5 52.5t26.5 25.5q10 4 43 19.5t61 27.5v-244q0 -31 22.5 -52t53.5 -21q33 0 54.5 21.5t21.5 54.5v157q-2 25 -10 53q-6 25 -17.5 60t-34.5 76l-172 321q-18 39 -30 76q-12 33 -21.5 72t-9.5 73v144q0 37 14.5 69.5t38 58t56 41t69.5 15.5h90 q35 0 67 -15.5t54.5 -41t36.5 -59t14 -68.5v-54q0 -35 -12.5 -52t-26.5 -25q-10 -4 -43.5 -19.5t-60.5 -27.5v159q0 33 -22.5 55.5t-55.5 22.5q-31 0 -53.5 -22.5t-22.5 -55.5v-133q2 -25 11 -53q6 -25 18 -59.5t35 -75.5l170 -320q16 -39 31 -76q12 -33 22 -71.5t10 -73.5 v-176q0 -74 -52 -126t-126 -52h-90q-72 4 -122 54t-50 122z" />
<glyph unicode="t" horiz-adv-x="757" d="M-78 1260v98q0 18 12.5 30.5t30.5 12.5h580q-12 -27 -27.5 -60.5t-19.5 -42.5q-6 -14 -23.5 -26t-52.5 -12h-113q-16 0 -25.5 -10.5t-9.5 -24.5v-1225h-110q-25 0 -32 11.5t-9 19.5v1229h-201z" />
<glyph unicode="u" horiz-adv-x="962" d="M225 166v1196q0 16 13.5 27.5t29.5 11.5h101v-1208q0 -31 21.5 -53.5t51.5 -22.5h23q33 0 55.5 21.5t22.5 54.5v1208h143v-1235q-2 -72 -51 -122t-121 -54h-111q-37 0 -69.5 14t-56 38t-38 55.5t-14.5 68.5z" />
<glyph unicode="v" horiz-adv-x="888" d="M72 1401h110q8 0 22.5 -9.5t20.5 -43.5l133 -879l144 932h143l-215 -1401h-61h-11q-27 0 -43 13.5t-25 30.5t-12.5 33.5t-3.5 20.5z" />
<glyph unicode="w" horiz-adv-x="1054" d="M31 1401h112q25 0 33 -10.5t10 -18.5l97 -768l69 486q10 61 33 86.5t92 25.5h17l94 -598l94 768q2 8 10 18.5t31 10.5h115l-170 -1401h-136l-96 711l-98 -711h-131z" />
<glyph unicode="x" horiz-adv-x="892" d="M61 0l222 741l-189 660h113q4 0 24.5 -6t30.5 -41l103 -375l96 375q10 35 30.5 41t24.5 6h115l-182 -662l208 -739h-155l-131 508l-144 -508h-166z" />
<glyph unicode="y" horiz-adv-x="897" d="M170 1401h104q4 0 22.5 -6t25.5 -41l92 -533l92 533q4 33 22.5 40t22.5 7h106l-172 -817v-584h-100q-18 0 -30.5 12.5t-12.5 28.5v543z" />
<glyph unicode="z" horiz-adv-x="1003" d="M133 0l412 1221q4 14 -2 24t-25 10h-164q-35 0 -52 12.5t-23 26.5q-4 10 -19.5 44t-28.5 61h543l-412 -1219q-4 -16 3.5 -26.5t21.5 -10.5h391l-47 -104q-6 -14 -24.5 -26.5t-53.5 -12.5h-520z" />
<glyph unicode="{" horiz-adv-x="839" d="M346 6v1389q2 25 10 47q8 18 22.5 33.5t43.5 15.5h235q-12 -29 -27.5 -62.5t-19.5 -42.5q-8 -14 -25.5 -26t-52.5 -12h-20q-10 0 -16.5 -7.5t-6.5 -17.5v-1245q0 -10 6.5 -17.5t16.5 -7.5h20q35 0 52.5 -12t25.5 -27q4 -10 19.5 -42.5t27.5 -61.5h-235q-29 0 -43 14.5 t-23 32.5q-8 23 -10 49z" />
<glyph unicode="|" d="M168 801h211q10 0 17 2t12 2l24 12q2 0 6 2q8 4 17 4q10 0 18 -4q4 -2 6 -2l25 -10q4 -2 11 -4t17 -2h209q-6 -16 -17 -43t-15 -33q-4 -10 -17.5 -19.5t-40.5 -9.5h-51q-14 0 -16 -4q-2 -2 -2 -8v-2l2 -2h49q-10 -20 -17.5 -38.5t-11.5 -23.5q-4 -12 -18 -18l-105 -43 l-8 -4q-4 -2 -18 -2t-19 2l-8 4l-102 43q-10 4 -13.5 9t-7.5 9q-4 6 -12 27t-14 35h51v4q0 6 -2 8q-4 4 -17 4h-53q-27 0 -39 9.5t-16 19.5q-4 6 -15.5 32.5t-19.5 43.5z" />
<glyph unicode="}" horiz-adv-x="839" d="M346 -90q12 29 27.5 61.5t19.5 42.5q6 14 23.5 26.5t52.5 12.5h20q10 0 16.5 7.5t6.5 17.5v1245q0 10 -6 17.5t-17 7.5h-20q-35 0 -52.5 12t-23.5 26q-4 8 -19.5 42t-27.5 63h236q29 0 43 -15.5t22 -33.5q8 -23 10 -47v-1389q-2 -27 -10 -49q-8 -18 -22.5 -32.5 t-42.5 -14.5h-236z" />
<glyph unicode="~" horiz-adv-x="964" d="M283 1462q-8 70 16.5 96.5t56.5 30.5q37 4 88 -12q49 -23 75 -20.5t26 40.5q0 6 2 13q4 10 20 10h56q2 -16 0 -48t-16.5 -58.5t-46.5 -39t-89 12.5q-55 23 -80.5 27t-30.5 -37q0 -8 -8 -13q-4 -2 -10 -2h-59z" />
<glyph unicode="&#xa1;" horiz-adv-x="786" d="M383 0v1090q0 16 12 20q6 2 13 2h118v-1061v-8q0 -16 -12 -29.5t-31 -13.5h-100zM383 1233v135q0 16 13.5 28.5t29.5 12.5h100v-154q0 -16 -12 -20q-6 -2 -12 -2h-119z" />
<glyph unicode="&#xa2;" d="M168 801h211q10 0 17 2t12 2l24 12q2 0 6 2q8 4 17 4q10 0 18 -4q4 -2 6 -2l25 -10q4 -2 11 -4t17 -2h209q-6 -16 -17 -43t-15 -33q-4 -10 -17.5 -19.5t-40.5 -9.5h-51q-14 0 -16 -4q-2 -2 -2 -8v-2l2 -2h49q-10 -20 -17.5 -38.5t-11.5 -23.5q-4 -12 -18 -18l-105 -43 l-8 -4q-4 -2 -18 -2t-19 2l-8 4l-102 43q-10 4 -13.5 9t-7.5 9q-4 6 -12 27t-14 35h51v4q0 6 -2 8q-4 4 -17 4h-53q-27 0 -39 9.5t-16 19.5q-4 6 -15.5 32.5t-19.5 43.5z" />
<glyph unicode="&#xa3;" d="M168 801h211q10 0 17 2t12 2l24 12q2 0 6 2q8 4 17 4q10 0 18 -4q4 -2 6 -2l25 -10q4 -2 11 -4t17 -2h209q-6 -16 -17 -43t-15 -33q-4 -10 -17.5 -19.5t-40.5 -9.5h-51q-14 0 -16 -4q-2 -2 -2 -8v-2l2 -2h49q-10 -20 -17.5 -38.5t-11.5 -23.5q-4 -12 -18 -18l-105 -43 l-8 -4q-4 -2 -18 -2t-19 2l-8 4l-102 43q-10 4 -13.5 9t-7.5 9q-4 6 -12 27t-14 35h51v4q0 6 -2 8q-4 4 -17 4h-53q-27 0 -39 9.5t-16 19.5q-4 6 -15.5 32.5t-19.5 43.5z" />
<glyph unicode="&#xa5;" d="M168 801h211q10 0 17 2t12 2l24 12q2 0 6 2q8 4 17 4q10 0 18 -4q4 -2 6 -2l25 -10q4 -2 11 -4t17 -2h209q-6 -16 -17 -43t-15 -33q-4 -10 -17.5 -19.5t-40.5 -9.5h-51q-14 0 -16 -4q-2 -2 -2 -8v-2l2 -2h49q-10 -20 -17.5 -38.5t-11.5 -23.5q-4 -12 -18 -18l-105 -43 l-8 -4q-4 -2 -18 -2t-19 2l-8 4l-102 43q-10 4 -13.5 9t-7.5 9q-4 6 -12 27t-14 35h51v4q0 6 -2 8q-4 4 -17 4h-53q-27 0 -39 9.5t-16 19.5q-4 6 -15.5 32.5t-19.5 43.5z" />
<glyph unicode="&#xa6;" d="M168 801h211q10 0 17 2t12 2l24 12q2 0 6 2q8 4 17 4q10 0 18 -4q4 -2 6 -2l25 -10q4 -2 11 -4t17 -2h209q-6 -16 -17 -43t-15 -33q-4 -10 -17.5 -19.5t-40.5 -9.5h-51q-14 0 -16 -4q-2 -2 -2 -8v-2l2 -2h49q-10 -20 -17.5 -38.5t-11.5 -23.5q-4 -12 -18 -18l-105 -43 l-8 -4q-4 -2 -18 -2t-19 2l-8 4l-102 43q-10 4 -13.5 9t-7.5 9q-4 6 -12 27t-14 35h51v4q0 6 -2 8q-4 4 -17 4h-53q-27 0 -39 9.5t-16 19.5q-4 6 -15.5 32.5t-19.5 43.5z" />
<glyph unicode="&#xa7;" d="M168 801h211q10 0 17 2t12 2l24 12q2 0 6 2q8 4 17 4q10 0 18 -4q4 -2 6 -2l25 -10q4 -2 11 -4t17 -2h209q-6 -16 -17 -43t-15 -33q-4 -10 -17.5 -19.5t-40.5 -9.5h-51q-14 0 -16 -4q-2 -2 -2 -8v-2l2 -2h49q-10 -20 -17.5 -38.5t-11.5 -23.5q-4 -12 -18 -18l-105 -43 l-8 -4q-4 -2 -18 -2t-19 2l-8 4l-102 43q-10 4 -13.5 9t-7.5 9q-4 6 -12 27t-14 35h51v4q0 6 -2 8q-4 4 -17 4h-53q-27 0 -39 9.5t-16 19.5q-4 6 -15.5 32.5t-19.5 43.5z" />
<glyph unicode="&#xa8;" d="M168 801h211q10 0 17 2t12 2l24 12q2 0 6 2q8 4 17 4q10 0 18 -4q4 -2 6 -2l25 -10q4 -2 11 -4t17 -2h209q-6 -16 -17 -43t-15 -33q-4 -10 -17.5 -19.5t-40.5 -9.5h-51q-14 0 -16 -4q-2 -2 -2 -8v-2l2 -2h49q-10 -20 -17.5 -38.5t-11.5 -23.5q-4 -12 -18 -18l-105 -43 l-8 -4q-4 -2 -18 -2t-19 2l-8 4l-102 43q-10 4 -13.5 9t-7.5 9q-4 6 -12 27t-14 35h51v4q0 6 -2 8q-4 4 -17 4h-53q-27 0 -39 9.5t-16 19.5q-4 6 -15.5 32.5t-19.5 43.5z" />
<glyph unicode="&#xa9;" d="M168 801h211q10 0 17 2t12 2l24 12q2 0 6 2q8 4 17 4q10 0 18 -4q4 -2 6 -2l25 -10q4 -2 11 -4t17 -2h209q-6 -16 -17 -43t-15 -33q-4 -10 -17.5 -19.5t-40.5 -9.5h-51q-14 0 -16 -4q-2 -2 -2 -8v-2l2 -2h49q-10 -20 -17.5 -38.5t-11.5 -23.5q-4 -12 -18 -18l-105 -43 l-8 -4q-4 -2 -18 -2t-19 2l-8 4l-102 43q-10 4 -13.5 9t-7.5 9q-4 6 -12 27t-14 35h51v4q0 6 -2 8q-4 4 -17 4h-53q-27 0 -39 9.5t-16 19.5q-4 6 -15.5 32.5t-19.5 43.5z" />
<glyph unicode="&#xaa;" d="M168 801h211q10 0 17 2t12 2l24 12q2 0 6 2q8 4 17 4q10 0 18 -4q4 -2 6 -2l25 -10q4 -2 11 -4t17 -2h209q-6 -16 -17 -43t-15 -33q-4 -10 -17.5 -19.5t-40.5 -9.5h-51q-14 0 -16 -4q-2 -2 -2 -8v-2l2 -2h49q-10 -20 -17.5 -38.5t-11.5 -23.5q-4 -12 -18 -18l-105 -43 l-8 -4q-4 -2 -18 -2t-19 2l-8 4l-102 43q-10 4 -13.5 9t-7.5 9q-4 6 -12 27t-14 35h51v4q0 6 -2 8q-4 4 -17 4h-53q-27 0 -39 9.5t-16 19.5q-4 6 -15.5 32.5t-19.5 43.5z" />
<glyph unicode="&#xab;" d="M168 801h211q10 0 17 2t12 2l24 12q2 0 6 2q8 4 17 4q10 0 18 -4q4 -2 6 -2l25 -10q4 -2 11 -4t17 -2h209q-6 -16 -17 -43t-15 -33q-4 -10 -17.5 -19.5t-40.5 -9.5h-51q-14 0 -16 -4q-2 -2 -2 -8v-2l2 -2h49q-10 -20 -17.5 -38.5t-11.5 -23.5q-4 -12 -18 -18l-105 -43 l-8 -4q-4 -2 -18 -2t-19 2l-8 4l-102 43q-10 4 -13.5 9t-7.5 9q-4 6 -12 27t-14 35h51v4q0 6 -2 8q-4 4 -17 4h-53q-27 0 -39 9.5t-16 19.5q-4 6 -15.5 32.5t-19.5 43.5z" />
<glyph unicode="&#xac;" d="M168 801h211q10 0 17 2t12 2l24 12q2 0 6 2q8 4 17 4q10 0 18 -4q4 -2 6 -2l25 -10q4 -2 11 -4t17 -2h209q-6 -16 -17 -43t-15 -33q-4 -10 -17.5 -19.5t-40.5 -9.5h-51q-14 0 -16 -4q-2 -2 -2 -8v-2l2 -2h49q-10 -20 -17.5 -38.5t-11.5 -23.5q-4 -12 -18 -18l-105 -43 l-8 -4q-4 -2 -18 -2t-19 2l-8 4l-102 43q-10 4 -13.5 9t-7.5 9q-4 6 -12 27t-14 35h51v4q0 6 -2 8q-4 4 -17 4h-53q-27 0 -39 9.5t-16 19.5q-4 6 -15.5 32.5t-19.5 43.5z" />
<glyph unicode="&#xad;" horiz-adv-x="854" d="M317 623v98q0 18 13.5 31.5t29.5 13.5h232v-100q0 -18 -12.5 -30.5t-30.5 -12.5h-232z" />
<glyph unicode="&#xae;" d="M168 801h211q10 0 17 2t12 2l24 12q2 0 6 2q8 4 17 4q10 0 18 -4q4 -2 6 -2l25 -10q4 -2 11 -4t17 -2h209q-6 -16 -17 -43t-15 -33q-4 -10 -17.5 -19.5t-40.5 -9.5h-51q-14 0 -16 -4q-2 -2 -2 -8v-2l2 -2h49q-10 -20 -17.5 -38.5t-11.5 -23.5q-4 -12 -18 -18l-105 -43 l-8 -4q-4 -2 -18 -2t-19 2l-8 4l-102 43q-10 4 -13.5 9t-7.5 9q-4 6 -12 27t-14 35h51v4q0 6 -2 8q-4 4 -17 4h-53q-27 0 -39 9.5t-16 19.5q-4 6 -15.5 32.5t-19.5 43.5z" />
<glyph unicode="&#xaf;" d="M168 801h211q10 0 17 2t12 2l24 12q2 0 6 2q8 4 17 4q10 0 18 -4q4 -2 6 -2l25 -10q4 -2 11 -4t17 -2h209q-6 -16 -17 -43t-15 -33q-4 -10 -17.5 -19.5t-40.5 -9.5h-51q-14 0 -16 -4q-2 -2 -2 -8v-2l2 -2h49q-10 -20 -17.5 -38.5t-11.5 -23.5q-4 -12 -18 -18l-105 -43 l-8 -4q-4 -2 -18 -2t-19 2l-8 4l-102 43q-10 4 -13.5 9t-7.5 9q-4 6 -12 27t-14 35h51v4q0 6 -2 8q-4 4 -17 4h-53q-27 0 -39 9.5t-16 19.5q-4 6 -15.5 32.5t-19.5 43.5z" />
<glyph unicode="&#xb0;" d="M168 801h211q10 0 17 2t12 2l24 12q2 0 6 2q8 4 17 4q10 0 18 -4q4 -2 6 -2l25 -10q4 -2 11 -4t17 -2h209q-6 -16 -17 -43t-15 -33q-4 -10 -17.5 -19.5t-40.5 -9.5h-51q-14 0 -16 -4q-2 -2 -2 -8v-2l2 -2h49q-10 -20 -17.5 -38.5t-11.5 -23.5q-4 -12 -18 -18l-105 -43 l-8 -4q-4 -2 -18 -2t-19 2l-8 4l-102 43q-10 4 -13.5 9t-7.5 9q-4 6 -12 27t-14 35h51v4q0 6 -2 8q-4 4 -17 4h-53q-27 0 -39 9.5t-16 19.5q-4 6 -15.5 32.5t-19.5 43.5z" />
<glyph unicode="&#xb1;" d="M168 801h211q10 0 17 2t12 2l24 12q2 0 6 2q8 4 17 4q10 0 18 -4q4 -2 6 -2l25 -10q4 -2 11 -4t17 -2h209q-6 -16 -17 -43t-15 -33q-4 -10 -17.5 -19.5t-40.5 -9.5h-51q-14 0 -16 -4q-2 -2 -2 -8v-2l2 -2h49q-10 -20 -17.5 -38.5t-11.5 -23.5q-4 -12 -18 -18l-105 -43 l-8 -4q-4 -2 -18 -2t-19 2l-8 4l-102 43q-10 4 -13.5 9t-7.5 9q-4 6 -12 27t-14 35h51v4q0 6 -2 8q-4 4 -17 4h-53q-27 0 -39 9.5t-16 19.5q-4 6 -15.5 32.5t-19.5 43.5z" />
<glyph unicode="&#xb2;" d="M168 801h211q10 0 17 2t12 2l24 12q2 0 6 2q8 4 17 4q10 0 18 -4q4 -2 6 -2l25 -10q4 -2 11 -4t17 -2h209q-6 -16 -17 -43t-15 -33q-4 -10 -17.5 -19.5t-40.5 -9.5h-51q-14 0 -16 -4q-2 -2 -2 -8v-2l2 -2h49q-10 -20 -17.5 -38.5t-11.5 -23.5q-4 -12 -18 -18l-105 -43 l-8 -4q-4 -2 -18 -2t-19 2l-8 4l-102 43q-10 4 -13.5 9t-7.5 9q-4 6 -12 27t-14 35h51v4q0 6 -2 8q-4 4 -17 4h-53q-27 0 -39 9.5t-16 19.5q-4 6 -15.5 32.5t-19.5 43.5z" />
<glyph unicode="&#xb3;" d="M168 801h211q10 0 17 2t12 2l24 12q2 0 6 2q8 4 17 4q10 0 18 -4q4 -2 6 -2l25 -10q4 -2 11 -4t17 -2h209q-6 -16 -17 -43t-15 -33q-4 -10 -17.5 -19.5t-40.5 -9.5h-51q-14 0 -16 -4q-2 -2 -2 -8v-2l2 -2h49q-10 -20 -17.5 -38.5t-11.5 -23.5q-4 -12 -18 -18l-105 -43 l-8 -4q-4 -2 -18 -2t-19 2l-8 4l-102 43q-10 4 -13.5 9t-7.5 9q-4 6 -12 27t-14 35h51v4q0 6 -2 8q-4 4 -17 4h-53q-27 0 -39 9.5t-16 19.5q-4 6 -15.5 32.5t-19.5 43.5z" />
<glyph unicode="&#xb4;" horiz-adv-x="563" d="M401 1462l76 168h111q10 0 14 -8v-8l-43 -107q-14 -37 -40.5 -41t-31.5 -4h-86z" />
<glyph unicode="&#xb5;" d="M168 801h211q10 0 17 2t12 2l24 12q2 0 6 2q8 4 17 4q10 0 18 -4q4 -2 6 -2l25 -10q4 -2 11 -4t17 -2h209q-6 -16 -17 -43t-15 -33q-4 -10 -17.5 -19.5t-40.5 -9.5h-51q-14 0 -16 -4q-2 -2 -2 -8v-2l2 -2h49q-10 -20 -17.5 -38.5t-11.5 -23.5q-4 -12 -18 -18l-105 -43 l-8 -4q-4 -2 -18 -2t-19 2l-8 4l-102 43q-10 4 -13.5 9t-7.5 9q-4 6 -12 27t-14 35h51v4q0 6 -2 8q-4 4 -17 4h-53q-27 0 -39 9.5t-16 19.5q-4 6 -15.5 32.5t-19.5 43.5z" />
<glyph unicode="&#xb6;" d="M168 801h211q10 0 17 2t12 2l24 12q2 0 6 2q8 4 17 4q10 0 18 -4q4 -2 6 -2l25 -10q4 -2 11 -4t17 -2h209q-6 -16 -17 -43t-15 -33q-4 -10 -17.5 -19.5t-40.5 -9.5h-51q-14 0 -16 -4q-2 -2 -2 -8v-2l2 -2h49q-10 -20 -17.5 -38.5t-11.5 -23.5q-4 -12 -18 -18l-105 -43 l-8 -4q-4 -2 -18 -2t-19 2l-8 4l-102 43q-10 4 -13.5 9t-7.5 9q-4 6 -12 27t-14 35h51v4q0 6 -2 8q-4 4 -17 4h-53q-27 0 -39 9.5t-16 19.5q-4 6 -15.5 32.5t-19.5 43.5z" />
<glyph unicode="&#xb7;" d="M168 801h211q10 0 17 2t12 2l24 12q2 0 6 2q8 4 17 4q10 0 18 -4q4 -2 6 -2l25 -10q4 -2 11 -4t17 -2h209q-6 -16 -17 -43t-15 -33q-4 -10 -17.5 -19.5t-40.5 -9.5h-51q-14 0 -16 -4q-2 -2 -2 -8v-2l2 -2h49q-10 -20 -17.5 -38.5t-11.5 -23.5q-4 -12 -18 -18l-105 -43 l-8 -4q-4 -2 -18 -2t-19 2l-8 4l-102 43q-10 4 -13.5 9t-7.5 9q-4 6 -12 27t-14 35h51v4q0 6 -2 8q-4 4 -17 4h-53q-27 0 -39 9.5t-16 19.5q-4 6 -15.5 32.5t-19.5 43.5z" />
<glyph unicode="&#xb8;" d="M168 801h211q10 0 17 2t12 2l24 12q2 0 6 2q8 4 17 4q10 0 18 -4q4 -2 6 -2l25 -10q4 -2 11 -4t17 -2h209q-6 -16 -17 -43t-15 -33q-4 -10 -17.5 -19.5t-40.5 -9.5h-51q-14 0 -16 -4q-2 -2 -2 -8v-2l2 -2h49q-10 -20 -17.5 -38.5t-11.5 -23.5q-4 -12 -18 -18l-105 -43 l-8 -4q-4 -2 -18 -2t-19 2l-8 4l-102 43q-10 4 -13.5 9t-7.5 9q-4 6 -12 27t-14 35h51v4q0 6 -2 8q-4 4 -17 4h-53q-27 0 -39 9.5t-16 19.5q-4 6 -15.5 32.5t-19.5 43.5z" />
<glyph unicode="&#xb9;" d="M168 801h211q10 0 17 2t12 2l24 12q2 0 6 2q8 4 17 4q10 0 18 -4q4 -2 6 -2l25 -10q4 -2 11 -4t17 -2h209q-6 -16 -17 -43t-15 -33q-4 -10 -17.5 -19.5t-40.5 -9.5h-51q-14 0 -16 -4q-2 -2 -2 -8v-2l2 -2h49q-10 -20 -17.5 -38.5t-11.5 -23.5q-4 -12 -18 -18l-105 -43 l-8 -4q-4 -2 -18 -2t-19 2l-8 4l-102 43q-10 4 -13.5 9t-7.5 9q-4 6 -12 27t-14 35h51v4q0 6 -2 8q-4 4 -17 4h-53q-27 0 -39 9.5t-16 19.5q-4 6 -15.5 32.5t-19.5 43.5z" />
<glyph unicode="&#xba;" d="M168 801h211q10 0 17 2t12 2l24 12q2 0 6 2q8 4 17 4q10 0 18 -4q4 -2 6 -2l25 -10q4 -2 11 -4t17 -2h209q-6 -16 -17 -43t-15 -33q-4 -10 -17.5 -19.5t-40.5 -9.5h-51q-14 0 -16 -4q-2 -2 -2 -8v-2l2 -2h49q-10 -20 -17.5 -38.5t-11.5 -23.5q-4 -12 -18 -18l-105 -43 l-8 -4q-4 -2 -18 -2t-19 2l-8 4l-102 43q-10 4 -13.5 9t-7.5 9q-4 6 -12 27t-14 35h51v4q0 6 -2 8q-4 4 -17 4h-53q-27 0 -39 9.5t-16 19.5q-4 6 -15.5 32.5t-19.5 43.5z" />
<glyph unicode="&#xbb;" d="M168 801h211q10 0 17 2t12 2l24 12q2 0 6 2q8 4 17 4q10 0 18 -4q4 -2 6 -2l25 -10q4 -2 11 -4t17 -2h209q-6 -16 -17 -43t-15 -33q-4 -10 -17.5 -19.5t-40.5 -9.5h-51q-14 0 -16 -4q-2 -2 -2 -8v-2l2 -2h49q-10 -20 -17.5 -38.5t-11.5 -23.5q-4 -12 -18 -18l-105 -43 l-8 -4q-4 -2 -18 -2t-19 2l-8 4l-102 43q-10 4 -13.5 9t-7.5 9q-4 6 -12 27t-14 35h51v4q0 6 -2 8q-4 4 -17 4h-53q-27 0 -39 9.5t-16 19.5q-4 6 -15.5 32.5t-19.5 43.5z" />
<glyph unicode="&#xbc;" d="M168 801h211q10 0 17 2t12 2l24 12q2 0 6 2q8 4 17 4q10 0 18 -4q4 -2 6 -2l25 -10q4 -2 11 -4t17 -2h209q-6 -16 -17 -43t-15 -33q-4 -10 -17.5 -19.5t-40.5 -9.5h-51q-14 0 -16 -4q-2 -2 -2 -8v-2l2 -2h49q-10 -20 -17.5 -38.5t-11.5 -23.5q-4 -12 -18 -18l-105 -43 l-8 -4q-4 -2 -18 -2t-19 2l-8 4l-102 43q-10 4 -13.5 9t-7.5 9q-4 6 -12 27t-14 35h51v4q0 6 -2 8q-4 4 -17 4h-53q-27 0 -39 9.5t-16 19.5q-4 6 -15.5 32.5t-19.5 43.5z" />
<glyph unicode="&#xbd;" d="M168 801h211q10 0 17 2t12 2l24 12q2 0 6 2q8 4 17 4q10 0 18 -4q4 -2 6 -2l25 -10q4 -2 11 -4t17 -2h209q-6 -16 -17 -43t-15 -33q-4 -10 -17.5 -19.5t-40.5 -9.5h-51q-14 0 -16 -4q-2 -2 -2 -8v-2l2 -2h49q-10 -20 -17.5 -38.5t-11.5 -23.5q-4 -12 -18 -18l-105 -43 l-8 -4q-4 -2 -18 -2t-19 2l-8 4l-102 43q-10 4 -13.5 9t-7.5 9q-4 6 -12 27t-14 35h51v4q0 6 -2 8q-4 4 -17 4h-53q-27 0 -39 9.5t-16 19.5q-4 6 -15.5 32.5t-19.5 43.5z" />
<glyph unicode="&#xbe;" d="M168 801h211q10 0 17 2t12 2l24 12q2 0 6 2q8 4 17 4q10 0 18 -4q4 -2 6 -2l25 -10q4 -2 11 -4t17 -2h209q-6 -16 -17 -43t-15 -33q-4 -10 -17.5 -19.5t-40.5 -9.5h-51q-14 0 -16 -4q-2 -2 -2 -8v-2l2 -2h49q-10 -20 -17.5 -38.5t-11.5 -23.5q-4 -12 -18 -18l-105 -43 l-8 -4q-4 -2 -18 -2t-19 2l-8 4l-102 43q-10 4 -13.5 9t-7.5 9q-4 6 -12 27t-14 35h51v4q0 6 -2 8q-4 4 -17 4h-53q-27 0 -39 9.5t-16 19.5q-4 6 -15.5 32.5t-19.5 43.5z" />
<glyph unicode="&#xbf;" horiz-adv-x="892" d="M236 174q0 -74 52 -126t126 -52h90q35 0 66.5 14.5t55 39t37 56t13.5 68.5v55q0 35 -13.5 52.5t-27.5 23.5q-8 4 -42 20.5t-63 28.5v-159q2 -31 -20.5 -52.5t-54.5 -21.5q-31 0 -53.5 21.5t-22.5 52.5v235q0 29 16 88q14 51 45 141.5t90 237.5q14 39 15 61v125 q0 16 -13 21q-6 2 -12 2h-119v-137q0 -12 -2 -22.5t-4 -20.5l-6 -19q-12 -25 -31 -76q-16 -43 -40.5 -114.5t-61.5 -181.5q-6 -14 -10 -35q-10 -37 -10 -94v-232zM401 1229v133q0 18 12.5 30.5t28.5 12.5h103v-154q0 -16 -13 -20q-6 -2 -12 -2h-119z" />
<glyph unicode="&#xc0;" horiz-adv-x="983" d="M172 0l211 1401h78q47 0 60.5 -23.5t17.5 -52.5l200 -1325h-157l-127 967l-125 -967h-158zM301 1630h88h10.5t19.5 -4t22.5 -13t17.5 -28l41 -106q2 -4 2 -9q0 -8 -17 -8h-106z" />
<glyph unicode="&#xc1;" horiz-adv-x="983" d="M172 0h158l125 967l127 -967h157l-200 1327q-4 29 -17.5 52.5t-60.5 23.5h-78zM399 1464l78 168h107q16 0 16 -8q0 -4 -2 -8l-41 -109q-14 -35 -40 -39t-30 -4h-88z" />
<glyph unicode="&#xc2;" horiz-adv-x="983" d="M172 0l211 1401h78q47 0 60.5 -23.5t17.5 -52.5l200 -1325h-157l-127 965l-125 -965h-158zM289 1462l117 168h100l115 -168h-58q-4 0 -27.5 4t-50.5 41l-30 45l-31 -45q-25 -37 -49.5 -41t-28.5 -4h-57z" />
<glyph unicode="&#xc3;" horiz-adv-x="983" d="M172 0h158l125 967l127 -967h157l-200 1327q-4 29 -17.5 52.5t-60.5 23.5h-78zM287 1464q-8 70 16.5 96.5t56.5 30.5q37 4 89 -12q49 -23 73.5 -20.5t26.5 40.5q0 6 2 13q4 10 20 8h56q2 -16 0 -47t-16.5 -58.5t-46.5 -40t-89 12.5t-81.5 29t-28.5 -37q0 -8 -9 -13 q-4 -2 -10 -2h-59z" />
<glyph unicode="&#xc4;" d="M168 801h211q10 0 17 2t12 2l24 12q2 0 6 2q8 4 17 4q10 0 18 -4q4 -2 6 -2l25 -10q4 -2 11 -4t17 -2h209q-6 -16 -17 -43t-15 -33q-4 -10 -17.5 -19.5t-40.5 -9.5h-51q-14 0 -16 -4q-2 -2 -2 -8v-2l2 -2h49q-10 -20 -17.5 -38.5t-11.5 -23.5q-4 -12 -18 -18l-105 -43 l-8 -4q-4 -2 -18 -2t-19 2l-8 4l-102 43q-10 4 -13.5 9t-7.5 9q-4 6 -12 27t-14 35h51v4q0 6 -2 8q-4 4 -17 4h-53q-27 0 -39 9.5t-16 19.5q-4 6 -15.5 32.5t-19.5 43.5z" />
<glyph unicode="&#xc5;" d="M168 801h211q10 0 17 2t12 2l24 12q2 0 6 2q8 4 17 4q10 0 18 -4q4 -2 6 -2l25 -10q4 -2 11 -4t17 -2h209q-6 -16 -17 -43t-15 -33q-4 -10 -17.5 -19.5t-40.5 -9.5h-51q-14 0 -16 -4q-2 -2 -2 -8v-2l2 -2h49q-10 -20 -17.5 -38.5t-11.5 -23.5q-4 -12 -18 -18l-105 -43 l-8 -4q-4 -2 -18 -2t-19 2l-8 4l-102 43q-10 4 -13.5 9t-7.5 9q-4 6 -12 27t-14 35h51v4q0 6 -2 8q-4 4 -17 4h-53q-27 0 -39 9.5t-16 19.5q-4 6 -15.5 32.5t-19.5 43.5z" />
<glyph unicode="&#xc6;" d="M168 801h211q10 0 17 2t12 2l24 12q2 0 6 2q8 4 17 4q10 0 18 -4q4 -2 6 -2l25 -10q4 -2 11 -4t17 -2h209q-6 -16 -17 -43t-15 -33q-4 -10 -17.5 -19.5t-40.5 -9.5h-51q-14 0 -16 -4q-2 -2 -2 -8v-2l2 -2h49q-10 -20 -17.5 -38.5t-11.5 -23.5q-4 -12 -18 -18l-105 -43 l-8 -4q-4 -2 -18 -2t-19 2l-8 4l-102 43q-10 4 -13.5 9t-7.5 9q-4 6 -12 27t-14 35h51v4q0 6 -2 8q-4 4 -17 4h-53q-27 0 -39 9.5t-16 19.5q-4 6 -15.5 32.5t-19.5 43.5z" />
<glyph unicode="&#xc7;" horiz-adv-x="940" d="M236 168v530v2v531q0 74 52 126t126 52h90q70 -4 121 -55t51 -123v-211q0 -35 -13.5 -52.5t-27.5 -25.5q-8 -4 -42 -19.5t-63 -27.5v313q2 31 -20.5 53.5t-54.5 22.5q-31 0 -53.5 -22.5t-22.5 -53.5v-508v-2v-508q0 -31 22.5 -53t53.5 -22q33 0 55 22.5t20 52.5v189 q0 35 13.5 52.5t27.5 25.5q8 4 42 19.5t63 27.5v-336q0 -37 -13.5 -68.5t-37 -55.5t-55 -38t-66.5 -16h-17v-21q78 -20 78 -100q-2 -37 -20 -62q-16 -23 -47 -39t-90 -10l4 17q2 16 14 24q6 4 10 4q16 2 33.5 15.5t15.5 42.5q-2 25 -18 41t-39 16h-10v72h-4q-74 0 -126 52 t-52 126z" />
<glyph unicode="&#xc8;" horiz-adv-x="931" d="M272 0v1360q0 18 13.5 29.5t29.5 11.5h375q-12 -27 -27.5 -60.5t-19.5 -42.5q-6 -14 -23.5 -27.5t-52.5 -13.5h-116q-14 0 -24.5 -9t-10.5 -23v-418h217q-12 -29 -27.5 -62.5t-19.5 -42.5q-6 -14 -23.5 -27t-52.5 -11h-59q-14 0 -24.5 -10.5t-10.5 -24.5v-486h301 q-12 -29 -27.5 -61.5t-19.5 -42.5q-6 -14 -23.5 -26.5t-52.5 -12.5h-322zM358 1630h88q4 0 30 -4t40 -41l45 -106q2 -4 2 -9q0 -8 -14 -8h-113z" />
<glyph unicode="&#xc9;" horiz-adv-x="927" d="M268 0h322q35 0 52 13.5t24 25.5q4 10 20 44t27 60h-301v486q0 16 10 25.5t24 9.5h60q35 0 52 12t24 26q4 10 20 43t27 62h-217v418q0 14 10 24.5t24 10.5h117q35 0 52.5 12t23.5 26q4 10 19.5 43t27.5 62h-375q-16 0 -29.5 -12.5t-13.5 -28.5v-1362zM440 1464l76 168 h115q14 0 14 -8q0 -4 -2 -8l-45 -107q-16 -37 -41 -41t-29 -4h-88z" />
<glyph unicode="&#xca;" horiz-adv-x="925" d="M266 0v1360q0 18 13.5 29.5t29.5 11.5h375q-12 -27 -27.5 -60.5t-19.5 -42.5q-6 -14 -23.5 -27.5t-52.5 -13.5h-117q-14 0 -24 -9t-10 -23v-418h217q-10 -29 -26.5 -62.5t-20.5 -42.5q-6 -14 -23.5 -27t-52.5 -11h-60q-14 0 -24 -10.5t-10 -24.5v-486h301 q-10 -29 -26.5 -61.5t-20.5 -42.5q-6 -14 -23.5 -26.5t-52.5 -12.5h-322zM324 1462l114 168h101l116 -168h-57q-4 0 -28.5 5.5t-49.5 39.5l-31 45l-30 -45q-27 -35 -50.5 -40t-27.5 -5h-57z" />
<glyph unicode="&#xcb;" d="M168 801h211q10 0 17 2t12 2l24 12q2 0 6 2q8 4 17 4q10 0 18 -4q4 -2 6 -2l25 -10q4 -2 11 -4t17 -2h209q-6 -16 -17 -43t-15 -33q-4 -10 -17.5 -19.5t-40.5 -9.5h-51q-14 0 -16 -4q-2 -2 -2 -8v-2l2 -2h49q-10 -20 -17.5 -38.5t-11.5 -23.5q-4 -12 -18 -18l-105 -43 l-8 -4q-4 -2 -18 -2t-19 2l-8 4l-102 43q-10 4 -13.5 9t-7.5 9q-4 6 -12 27t-14 35h51v4q0 6 -2 8q-4 4 -17 4h-53q-27 0 -39 9.5t-16 19.5q-4 6 -15.5 32.5t-19.5 43.5z" />
<glyph unicode="&#xcc;" horiz-adv-x="804" d="M322 1630h88q4 0 29.5 -4t41.5 -41l41 -106q2 -4 2 -9q0 -8 -14 -8h-111zM401 43q0 -18 13.5 -30.5t29.5 -12.5h101v1358q0 18 -12.5 30.5t-30.5 12.5h-101v-1358z" />
<glyph unicode="&#xcd;" horiz-adv-x="772" d="M369 43q0 -18 12 -30.5t31 -12.5h100v1358q0 18 -13.5 30.5t-29.5 12.5h-100v-1358zM369 1462l77 168h109q16 0 16 -8q0 -4 -2 -8l-41 -107q-16 -37 -41.5 -41t-29.5 -4h-88z" />
<glyph unicode="&#xce;" horiz-adv-x="788" d="M287 1462l116 168h101l114 -168h-57q-4 0 -27.5 4t-48.5 41l-32 45l-31 -45q-25 -37 -48.5 -41t-27.5 -4h-59zM383 43v1358h100q18 0 30.5 -12.5t12.5 -30.5v-1358h-98q-18 0 -31.5 12.5t-13.5 30.5z" />
<glyph unicode="&#xcf;" d="M168 801h211q10 0 17 2t12 2l24 12q2 0 6 2q8 4 17 4q10 0 18 -4q4 -2 6 -2l25 -10q4 -2 11 -4t17 -2h209q-6 -16 -17 -43t-15 -33q-4 -10 -17.5 -19.5t-40.5 -9.5h-51q-14 0 -16 -4q-2 -2 -2 -8v-2l2 -2h49q-10 -20 -17.5 -38.5t-11.5 -23.5q-4 -12 -18 -18l-105 -43 l-8 -4q-4 -2 -18 -2t-19 2l-8 4l-102 43q-10 4 -13.5 9t-7.5 9q-4 6 -12 27t-14 35h51v4q0 6 -2 8q-4 4 -17 4h-53q-27 0 -39 9.5t-16 19.5q-4 6 -15.5 32.5t-19.5 43.5z" />
<glyph unicode="&#xd0;" d="M168 801h211q10 0 17 2t12 2l24 12q2 0 6 2q8 4 17 4q10 0 18 -4q4 -2 6 -2l25 -10q4 -2 11 -4t17 -2h209q-6 -16 -17 -43t-15 -33q-4 -10 -17.5 -19.5t-40.5 -9.5h-51q-14 0 -16 -4q-2 -2 -2 -8v-2l2 -2h49q-10 -20 -17.5 -38.5t-11.5 -23.5q-4 -12 -18 -18l-105 -43 l-8 -4q-4 -2 -18 -2t-19 2l-8 4l-102 43q-10 4 -13.5 9t-7.5 9q-4 6 -12 27t-14 35h51v4q0 6 -2 8q-4 4 -17 4h-53q-27 0 -39 9.5t-16 19.5q-4 6 -15.5 32.5t-19.5 43.5z" />
<glyph unicode="&#xd1;" horiz-adv-x="946" d="M225 0h144v782l153 -692q2 -10 7.5 -25.5t15.5 -30t28.5 -24.5t47.5 -10h65v1401h-141v-807l-152 729q-6 31 -23.5 54.5t-78.5 23.5h-66v-1401zM285 1458q-8 72 16.5 98.5t56.5 30.5q37 4 88 -14q49 -20 75 -19.5t26 41.5q0 4 2 11q4 10 20 10h56q2 -16 0 -47 t-16.5 -58.5t-46.5 -40t-89 12.5q-57 23 -81.5 26.5t-29.5 -36.5q0 -8 -8 -13q-4 -2 -10 -2h-59z" />
<glyph unicode="&#xd2;" horiz-adv-x="966" d="M225 166q0 -74 52.5 -125t125.5 -51h111q35 2 66.5 16t55 38t37 54.5t13.5 67.5v1065q0 72 -51 123t-121 55h-111q-74 0 -126 -52t-52 -126v-1065zM311 1630h86h11.5t20.5 -4t22.5 -13t17.5 -28l43 -108v-9q-4 -6 -14 -6h-109zM369 193v1013q0 33 21.5 54.5t51.5 23.5h23 q33 0 55.5 -22.5t22.5 -55.5v-1013q0 -33 -22.5 -55.5t-55.5 -22.5h-21q-33 2 -54 23.5t-21 54.5z" />
<glyph unicode="&#xd3;" horiz-adv-x="966" d="M225 166q0 -74 52.5 -125t125.5 -51h111q35 2 66.5 16t55 38t37 54.5t13.5 67.5v1065q0 72 -51 123t-121 55h-111q-74 0 -126 -52t-52 -126v-1065zM369 193v1013q0 33 21.5 54.5t51.5 23.5h23q33 0 55.5 -22.5t22.5 -55.5v-1013q0 -33 -22.5 -55.5t-55.5 -22.5h-21 q-33 2 -54 23.5t-21 54.5zM401 1462l76 168h111q10 0 14 -8v-8l-43 -107q-14 -37 -40.5 -41t-31.5 -4h-86z" />
<glyph unicode="&#xd4;" horiz-adv-x="966" d="M225 166q0 -37 14.5 -68.5t38 -55.5t56.5 -38t69 -14h111q35 2 66.5 16t55 38t37 54.5t13.5 67.5v1065q0 37 -13.5 68.5t-37 56t-55 39t-66.5 14.5h-111q-74 0 -126 -52t-52 -126v-1065zM289 1462l117 168h100l115 -168h-58q-4 0 -27.5 4t-50.5 41l-30 45l-31 -45 q-25 -37 -49.5 -41t-28.5 -4h-57zM369 193v1015q0 31 21.5 52.5t51.5 23.5h23q33 0 55.5 -22.5t22.5 -53.5v-1015q0 -33 -22.5 -54.5t-55.5 -21.5h-21q-33 0 -54 21.5t-21 54.5z" />
<glyph unicode="&#xd5;" d="M168 801h211q10 0 17 2t12 2l24 12q2 0 6 2q8 4 17 4q10 0 18 -4q4 -2 6 -2l25 -10q4 -2 11 -4t17 -2h209q-6 -16 -17 -43t-15 -33q-4 -10 -17.5 -19.5t-40.5 -9.5h-51q-14 0 -16 -4q-2 -2 -2 -8v-2l2 -2h49q-10 -20 -17.5 -38.5t-11.5 -23.5q-4 -12 -18 -18l-105 -43 l-8 -4q-4 -2 -18 -2t-19 2l-8 4l-102 43q-10 4 -13.5 9t-7.5 9q-4 6 -12 27t-14 35h51v4q0 6 -2 8q-4 4 -17 4h-53q-27 0 -39 9.5t-16 19.5q-4 6 -15.5 32.5t-19.5 43.5z" />
<glyph unicode="&#xd6;" d="M168 801h211q10 0 17 2t12 2l24 12q2 0 6 2q8 4 17 4q10 0 18 -4q4 -2 6 -2l25 -10q4 -2 11 -4t17 -2h209q-6 -16 -17 -43t-15 -33q-4 -10 -17.5 -19.5t-40.5 -9.5h-51q-14 0 -16 -4q-2 -2 -2 -8v-2l2 -2h49q-10 -20 -17.5 -38.5t-11.5 -23.5q-4 -12 -18 -18l-105 -43 l-8 -4q-4 -2 -18 -2t-19 2l-8 4l-102 43q-10 4 -13.5 9t-7.5 9q-4 6 -12 27t-14 35h51v4q0 6 -2 8q-4 4 -17 4h-53q-27 0 -39 9.5t-16 19.5q-4 6 -15.5 32.5t-19.5 43.5z" />
<glyph unicode="&#xd7;" d="M168 801h211q10 0 17 2t12 2l24 12q2 0 6 2q8 4 17 4q10 0 18 -4q4 -2 6 -2l25 -10q4 -2 11 -4t17 -2h209q-6 -16 -17 -43t-15 -33q-4 -10 -17.5 -19.5t-40.5 -9.5h-51q-14 0 -16 -4q-2 -2 -2 -8v-2l2 -2h49q-10 -20 -17.5 -38.5t-11.5 -23.5q-4 -12 -18 -18l-105 -43 l-8 -4q-4 -2 -18 -2t-19 2l-8 4l-102 43q-10 4 -13.5 9t-7.5 9q-4 6 -12 27t-14 35h51v4q0 6 -2 8q-4 4 -17 4h-53q-27 0 -39 9.5t-16 19.5q-4 6 -15.5 32.5t-19.5 43.5z" />
<glyph unicode="&#xd8;" d="M168 801h211q10 0 17 2t12 2l24 12q2 0 6 2q8 4 17 4q10 0 18 -4q4 -2 6 -2l25 -10q4 -2 11 -4t17 -2h209q-6 -16 -17 -43t-15 -33q-4 -10 -17.5 -19.5t-40.5 -9.5h-51q-14 0 -16 -4q-2 -2 -2 -8v-2l2 -2h49q-10 -20 -17.5 -38.5t-11.5 -23.5q-4 -12 -18 -18l-105 -43 l-8 -4q-4 -2 -18 -2t-19 2l-8 4l-102 43q-10 4 -13.5 9t-7.5 9q-4 6 -12 27t-14 35h51v4q0 6 -2 8q-4 4 -17 4h-53q-27 0 -39 9.5t-16 19.5q-4 6 -15.5 32.5t-19.5 43.5z" />
<glyph unicode="&#xd9;" horiz-adv-x="946" d="M225 166v1196q0 16 13.5 27.5t29.5 11.5h101v-1208q0 -31 21.5 -53.5t51.5 -22.5h23q33 0 55.5 22.5t22.5 53.5v1208h143v-1235q-2 -72 -51 -122t-121 -52v-2h-111q-37 0 -69.5 14t-56 38t-38 55.5t-14.5 68.5zM319 1630h87q4 0 30.5 -4t40.5 -41l43 -106v-9 q-4 -8 -14 -8h-111z" />
<glyph unicode="&#xda;" horiz-adv-x="946" d="M225 166q0 -37 14.5 -68.5t38 -55.5t56.5 -38t69 -14h111q72 4 121 54t51 122v1235h-143v-1208q0 -33 -22.5 -54.5t-55.5 -21.5h-23q-31 0 -52 22.5t-21 53.5v1208h-101q-16 0 -29.5 -11.5t-13.5 -27.5v-1196zM406 1462l77 168h111q14 0 14 -8q0 -4 -2 -8l-41 -107 q-16 -37 -41.5 -41t-29.5 -4h-88z" />
<glyph unicode="&#xdb;" horiz-adv-x="966" d="M225 166q0 -37 14.5 -68.5t38 -55.5t56.5 -38t69 -14h111q72 4 121 54t51 122v1235h-143v-1208q0 -33 -22.5 -54.5t-55.5 -21.5h-23q-31 0 -52 22.5t-21 53.5v1208h-101q-16 0 -29.5 -11.5t-13.5 -27.5v-1196zM289 1462l117 168h100l115 -168h-58q-4 0 -27.5 4t-50.5 41 l-30 45l-31 -45q-25 -37 -49.5 -41t-28.5 -4h-57z" />
<glyph unicode="&#xdc;" d="M168 801h211q10 0 17 2t12 2l24 12q2 0 6 2q8 4 17 4q10 0 18 -4q4 -2 6 -2l25 -10q4 -2 11 -4t17 -2h209q-6 -16 -17 -43t-15 -33q-4 -10 -17.5 -19.5t-40.5 -9.5h-51q-14 0 -16 -4q-2 -2 -2 -8v-2l2 -2h49q-10 -20 -17.5 -38.5t-11.5 -23.5q-4 -12 -18 -18l-105 -43 l-8 -4q-4 -2 -18 -2t-19 2l-8 4l-102 43q-10 4 -13.5 9t-7.5 9q-4 6 -12 27t-14 35h51v4q0 6 -2 8q-4 4 -17 4h-53q-27 0 -39 9.5t-16 19.5q-4 6 -15.5 32.5t-19.5 43.5z" />
<glyph unicode="&#xdd;" d="M168 801h211q10 0 17 2t12 2l24 12q2 0 6 2q8 4 17 4q10 0 18 -4q4 -2 6 -2l25 -10q4 -2 11 -4t17 -2h209q-6 -16 -17 -43t-15 -33q-4 -10 -17.5 -19.5t-40.5 -9.5h-51q-14 0 -16 -4q-2 -2 -2 -8v-2l2 -2h49q-10 -20 -17.5 -38.5t-11.5 -23.5q-4 -12 -18 -18l-105 -43 l-8 -4q-4 -2 -18 -2t-19 2l-8 4l-102 43q-10 4 -13.5 9t-7.5 9q-4 6 -12 27t-14 35h51v4q0 6 -2 8q-4 4 -17 4h-53q-27 0 -39 9.5t-16 19.5q-4 6 -15.5 32.5t-19.5 43.5z" />
<glyph unicode="&#xde;" d="M168 801h211q10 0 17 2t12 2l24 12q2 0 6 2q8 4 17 4q10 0 18 -4q4 -2 6 -2l25 -10q4 -2 11 -4t17 -2h209q-6 -16 -17 -43t-15 -33q-4 -10 -17.5 -19.5t-40.5 -9.5h-51q-14 0 -16 -4q-2 -2 -2 -8v-2l2 -2h49q-10 -20 -17.5 -38.5t-11.5 -23.5q-4 -12 -18 -18l-105 -43 l-8 -4q-4 -2 -18 -2t-19 2l-8 4l-102 43q-10 4 -13.5 9t-7.5 9q-4 6 -12 27t-14 35h51v4q0 6 -2 8q-4 4 -17 4h-53q-27 0 -39 9.5t-16 19.5q-4 6 -15.5 32.5t-19.5 43.5z" />
<glyph unicode="&#xdf;" d="M168 801h211q10 0 17 2t12 2l24 12q2 0 6 2q8 4 17 4q10 0 18 -4q4 -2 6 -2l25 -10q4 -2 11 -4t17 -2h209q-6 -16 -17 -43t-15 -33q-4 -10 -17.5 -19.5t-40.5 -9.5h-51q-14 0 -16 -4q-2 -2 -2 -8v-2l2 -2h49q-10 -20 -17.5 -38.5t-11.5 -23.5q-4 -12 -18 -18l-105 -43 l-8 -4q-4 -2 -18 -2t-19 2l-8 4l-102 43q-10 4 -13.5 9t-7.5 9q-4 6 -12 27t-14 35h51v4q0 6 -2 8q-4 4 -17 4h-53q-27 0 -39 9.5t-16 19.5q-4 6 -15.5 32.5t-19.5 43.5z" />
<glyph unicode="&#xe0;" horiz-adv-x="983" d="M172 0l211 1401h78q47 0 60.5 -23.5t17.5 -52.5l200 -1325h-157l-127 967l-125 -967h-158zM301 1630h88h10.5t19.5 -4t22.5 -13t17.5 -28l41 -106q2 -4 2 -9q0 -8 -17 -8h-106z" />
<glyph unicode="&#xe1;" horiz-adv-x="983" d="M172 0h158l125 967l127 -967h157l-200 1327q-4 29 -17.5 52.5t-60.5 23.5h-78zM399 1464l78 168h107q16 0 16 -8q0 -4 -2 -8l-41 -109q-14 -35 -40 -39t-30 -4h-88z" />
<glyph unicode="&#xe2;" horiz-adv-x="983" d="M172 0l211 1401h78q47 0 60.5 -23.5t17.5 -52.5l200 -1325h-157l-127 965l-125 -965h-158zM289 1462l117 168h100l115 -168h-58q-4 0 -27.5 4t-50.5 41l-30 45l-31 -45q-25 -37 -49.5 -41t-28.5 -4h-57z" />
<glyph unicode="&#xe3;" horiz-adv-x="983" d="M172 0h158l125 967l127 -967h157l-200 1327q-4 29 -17.5 52.5t-60.5 23.5h-78zM287 1464q-8 70 16.5 96.5t56.5 30.5q37 4 89 -12q49 -23 73.5 -20.5t26.5 40.5q0 6 2 13q4 10 20 8h56q2 -16 0 -47t-16.5 -58.5t-46.5 -40t-89 12.5t-81.5 29t-28.5 -37q0 -8 -9 -13 q-4 -2 -10 -2h-59z" />
<glyph unicode="&#xe4;" d="M168 801h211q10 0 17 2t12 2l24 12q2 0 6 2q8 4 17 4q10 0 18 -4q4 -2 6 -2l25 -10q4 -2 11 -4t17 -2h209q-6 -16 -17 -43t-15 -33q-4 -10 -17.5 -19.5t-40.5 -9.5h-51q-14 0 -16 -4q-2 -2 -2 -8v-2l2 -2h49q-10 -20 -17.5 -38.5t-11.5 -23.5q-4 -12 -18 -18l-105 -43 l-8 -4q-4 -2 -18 -2t-19 2l-8 4l-102 43q-10 4 -13.5 9t-7.5 9q-4 6 -12 27t-14 35h51v4q0 6 -2 8q-4 4 -17 4h-53q-27 0 -39 9.5t-16 19.5q-4 6 -15.5 32.5t-19.5 43.5z" />
<glyph unicode="&#xe5;" d="M168 801h211q10 0 17 2t12 2l24 12q2 0 6 2q8 4 17 4q10 0 18 -4q4 -2 6 -2l25 -10q4 -2 11 -4t17 -2h209q-6 -16 -17 -43t-15 -33q-4 -10 -17.5 -19.5t-40.5 -9.5h-51q-14 0 -16 -4q-2 -2 -2 -8v-2l2 -2h49q-10 -20 -17.5 -38.5t-11.5 -23.5q-4 -12 -18 -18l-105 -43 l-8 -4q-4 -2 -18 -2t-19 2l-8 4l-102 43q-10 4 -13.5 9t-7.5 9q-4 6 -12 27t-14 35h51v4q0 6 -2 8q-4 4 -17 4h-53q-27 0 -39 9.5t-16 19.5q-4 6 -15.5 32.5t-19.5 43.5z" />
<glyph unicode="&#xe6;" d="M168 801h211q10 0 17 2t12 2l24 12q2 0 6 2q8 4 17 4q10 0 18 -4q4 -2 6 -2l25 -10q4 -2 11 -4t17 -2h209q-6 -16 -17 -43t-15 -33q-4 -10 -17.5 -19.5t-40.5 -9.5h-51q-14 0 -16 -4q-2 -2 -2 -8v-2l2 -2h49q-10 -20 -17.5 -38.5t-11.5 -23.5q-4 -12 -18 -18l-105 -43 l-8 -4q-4 -2 -18 -2t-19 2l-8 4l-102 43q-10 4 -13.5 9t-7.5 9q-4 6 -12 27t-14 35h51v4q0 6 -2 8q-4 4 -17 4h-53q-27 0 -39 9.5t-16 19.5q-4 6 -15.5 32.5t-19.5 43.5z" />
<glyph unicode="&#xe7;" horiz-adv-x="940" d="M236 168v530v2v531q0 74 52 126t126 52h90q70 -4 121 -55t51 -123v-211q0 -35 -13.5 -52.5t-27.5 -25.5q-8 -4 -42 -19.5t-63 -27.5v313q2 31 -20.5 53.5t-54.5 22.5q-31 0 -53.5 -22.5t-22.5 -53.5v-508v-2v-508q0 -31 22.5 -53t53.5 -22q33 0 55 22.5t20 52.5v189 q0 35 13.5 52.5t27.5 25.5q8 4 42 19.5t63 27.5v-336q0 -37 -13.5 -68.5t-37 -55.5t-55 -38t-66.5 -16h-17v-21q78 -20 78 -100q-2 -37 -20 -62q-16 -23 -47 -39t-90 -10l4 17q2 16 14 24q6 4 10 4q16 2 33.5 15.5t15.5 42.5q-2 25 -18 41t-39 16h-10v72h-4q-74 0 -126 52 t-52 126z" />
<glyph unicode="&#xe8;" horiz-adv-x="931" d="M272 0v1360q0 18 13.5 29.5t29.5 11.5h375q-12 -27 -27.5 -60.5t-19.5 -42.5q-6 -14 -23.5 -27.5t-52.5 -13.5h-116q-14 0 -24.5 -9t-10.5 -23v-418h217q-12 -29 -27.5 -62.5t-19.5 -42.5q-6 -14 -23.5 -27t-52.5 -11h-59q-14 0 -24.5 -10.5t-10.5 -24.5v-486h301 q-12 -29 -27.5 -61.5t-19.5 -42.5q-6 -14 -23.5 -26.5t-52.5 -12.5h-322zM358 1630h88q4 0 30 -4t40 -41l45 -106q2 -4 2 -9q0 -8 -14 -8h-113z" />
<glyph unicode="&#xe9;" horiz-adv-x="927" d="M268 0h322q35 0 52 13.5t24 25.5q4 10 20 44t27 60h-301v486q0 16 10 25.5t24 9.5h60q35 0 52 12t24 26q4 10 20 43t27 62h-217v418q0 14 10 24.5t24 10.5h117q35 0 52.5 12t23.5 26q4 10 19.5 43t27.5 62h-375q-16 0 -29.5 -12.5t-13.5 -28.5v-1362zM440 1464l76 168 h115q14 0 14 -8q0 -4 -2 -8l-45 -107q-16 -37 -41 -41t-29 -4h-88z" />
<glyph unicode="&#xea;" horiz-adv-x="925" d="M266 0v1360q0 18 13.5 29.5t29.5 11.5h375q-12 -27 -27.5 -60.5t-19.5 -42.5q-6 -14 -23.5 -27.5t-52.5 -13.5h-117q-14 0 -24 -9t-10 -23v-418h217q-10 -29 -26.5 -62.5t-20.5 -42.5q-6 -14 -23.5 -27t-52.5 -11h-60q-14 0 -24 -10.5t-10 -24.5v-486h301 q-10 -29 -26.5 -61.5t-20.5 -42.5q-6 -14 -23.5 -26.5t-52.5 -12.5h-322zM324 1462l114 168h101l116 -168h-57q-4 0 -28.5 5.5t-49.5 39.5l-31 45l-30 -45q-27 -35 -50.5 -40t-27.5 -5h-57z" />
<glyph unicode="&#xeb;" d="M168 801h211q10 0 17 2t12 2l24 12q2 0 6 2q8 4 17 4q10 0 18 -4q4 -2 6 -2l25 -10q4 -2 11 -4t17 -2h209q-6 -16 -17 -43t-15 -33q-4 -10 -17.5 -19.5t-40.5 -9.5h-51q-14 0 -16 -4q-2 -2 -2 -8v-2l2 -2h49q-10 -20 -17.5 -38.5t-11.5 -23.5q-4 -12 -18 -18l-105 -43 l-8 -4q-4 -2 -18 -2t-19 2l-8 4l-102 43q-10 4 -13.5 9t-7.5 9q-4 6 -12 27t-14 35h51v4q0 6 -2 8q-4 4 -17 4h-53q-27 0 -39 9.5t-16 19.5q-4 6 -15.5 32.5t-19.5 43.5z" />
<glyph unicode="&#xec;" horiz-adv-x="804" d="M322 1630h88q4 0 29.5 -4t41.5 -41l41 -106q2 -4 2 -9q0 -8 -14 -8h-111zM401 43q0 -18 13.5 -30.5t29.5 -12.5h101v1358q0 18 -12.5 30.5t-30.5 12.5h-101v-1358z" />
<glyph unicode="&#xed;" horiz-adv-x="772" d="M369 43q0 -18 12 -30.5t31 -12.5h100v1358q0 18 -13.5 30.5t-29.5 12.5h-100v-1358zM369 1462l77 168h109q16 0 16 -8q0 -4 -2 -8l-41 -107q-16 -37 -41.5 -41t-29.5 -4h-88z" />
<glyph unicode="&#xee;" horiz-adv-x="788" d="M287 1462l116 168h101l114 -168h-57q-4 0 -27.5 4t-48.5 41l-32 45l-31 -45q-25 -37 -48.5 -41t-27.5 -4h-59zM383 43v1358h100q18 0 30.5 -12.5t12.5 -30.5v-1358h-98q-18 0 -31.5 12.5t-13.5 30.5z" />
<glyph unicode="&#xef;" d="M168 801h211q10 0 17 2t12 2l24 12q2 0 6 2q8 4 17 4q10 0 18 -4q4 -2 6 -2l25 -10q4 -2 11 -4t17 -2h209q-6 -16 -17 -43t-15 -33q-4 -10 -17.5 -19.5t-40.5 -9.5h-51q-14 0 -16 -4q-2 -2 -2 -8v-2l2 -2h49q-10 -20 -17.5 -38.5t-11.5 -23.5q-4 -12 -18 -18l-105 -43 l-8 -4q-4 -2 -18 -2t-19 2l-8 4l-102 43q-10 4 -13.5 9t-7.5 9q-4 6 -12 27t-14 35h51v4q0 6 -2 8q-4 4 -17 4h-53q-27 0 -39 9.5t-16 19.5q-4 6 -15.5 32.5t-19.5 43.5z" />
<glyph unicode="&#xf0;" d="M168 801h211q10 0 17 2t12 2l24 12q2 0 6 2q8 4 17 4q10 0 18 -4q4 -2 6 -2l25 -10q4 -2 11 -4t17 -2h209q-6 -16 -17 -43t-15 -33q-4 -10 -17.5 -19.5t-40.5 -9.5h-51q-14 0 -16 -4q-2 -2 -2 -8v-2l2 -2h49q-10 -20 -17.5 -38.5t-11.5 -23.5q-4 -12 -18 -18l-105 -43 l-8 -4q-4 -2 -18 -2t-19 2l-8 4l-102 43q-10 4 -13.5 9t-7.5 9q-4 6 -12 27t-14 35h51v4q0 6 -2 8q-4 4 -17 4h-53q-27 0 -39 9.5t-16 19.5q-4 6 -15.5 32.5t-19.5 43.5z" />
<glyph unicode="&#xf1;" horiz-adv-x="946" d="M225 0h144v782l153 -692q2 -10 7.5 -25.5t15.5 -30t28.5 -24.5t47.5 -10h65v1401h-141v-807l-152 729q-6 31 -23.5 54.5t-78.5 23.5h-66v-1401zM285 1458q-8 72 16.5 98.5t56.5 30.5q37 4 88 -14q49 -20 75 -19.5t26 41.5q0 4 2 11q4 10 20 10h56q2 -16 0 -47 t-16.5 -58.5t-46.5 -40t-89 12.5q-57 23 -81.5 26.5t-29.5 -36.5q0 -8 -8 -13q-4 -2 -10 -2h-59z" />
<glyph unicode="&#xf2;" horiz-adv-x="966" d="M225 166q0 -74 52.5 -125t125.5 -51h111q35 2 66.5 16t55 38t37 54.5t13.5 67.5v1065q0 72 -51 123t-121 55h-111q-74 0 -126 -52t-52 -126v-1065zM311 1630h86h11.5t20.5 -4t22.5 -13t17.5 -28l43 -108v-9q-4 -6 -14 -6h-109zM369 193v1013q0 33 21.5 54.5t51.5 23.5h23 q33 0 55.5 -22.5t22.5 -55.5v-1013q0 -33 -22.5 -55.5t-55.5 -22.5h-21q-33 2 -54 23.5t-21 54.5z" />
<glyph unicode="&#xf3;" horiz-adv-x="966" d="M225 166q0 -74 52.5 -125t125.5 -51h111q35 2 66.5 16t55 38t37 54.5t13.5 67.5v1065q0 72 -51 123t-121 55h-111q-74 0 -126 -52t-52 -126v-1065zM369 193v1013q0 33 21.5 54.5t51.5 23.5h23q33 0 55.5 -22.5t22.5 -55.5v-1013q0 -33 -22.5 -55.5t-55.5 -22.5h-21 q-33 2 -54 23.5t-21 54.5zM401 1462l76 168h111q10 0 14 -8v-8l-43 -107q-14 -37 -40.5 -41t-31.5 -4h-86z" />
<glyph unicode="&#xf4;" horiz-adv-x="966" d="M225 166q0 -37 14.5 -68.5t38 -55.5t56.5 -38t69 -14h111q35 2 66.5 16t55 38t37 54.5t13.5 67.5v1065q0 37 -13.5 68.5t-37 56t-55 39t-66.5 14.5h-111q-74 0 -126 -52t-52 -126v-1065zM289 1462l117 168h100l115 -168h-58q-4 0 -27.5 4t-50.5 41l-30 45l-31 -45 q-25 -37 -49.5 -41t-28.5 -4h-57zM369 193v1015q0 31 21.5 52.5t51.5 23.5h23q33 0 55.5 -22.5t22.5 -53.5v-1015q0 -33 -22.5 -54.5t-55.5 -21.5h-21q-33 0 -54 21.5t-21 54.5z" />
<glyph unicode="&#xf5;" horiz-adv-x="964" d="M223 166q0 -74 52.5 -125t125.5 -51h111q35 2 66.5 16t55 38t37 54.5t13.5 67.5v1065q0 72 -51 123t-121 55h-111q-74 0 -126 -52t-52 -126v-1065zM283 1462q-8 70 16.5 96.5t56.5 30.5q37 4 88 -12q49 -23 75 -20.5t26 40.5q0 6 2 13q4 10 20 10h56q2 -16 0 -48 t-16.5 -58.5t-46.5 -39t-89 12.5q-55 23 -80.5 27t-30.5 -37q0 -8 -8 -13q-4 -2 -10 -2h-59zM367 193v1013q0 33 21.5 54.5t51.5 23.5h23q33 0 55.5 -22.5t22.5 -55.5v-1013q0 -33 -22.5 -55.5t-55.5 -22.5h-21q-33 2 -54 23.5t-21 54.5z" />
<glyph unicode="&#xf6;" d="M168 801h211q10 0 17 2t12 2l24 12q2 0 6 2q8 4 17 4q10 0 18 -4q4 -2 6 -2l25 -10q4 -2 11 -4t17 -2h209q-6 -16 -17 -43t-15 -33q-4 -10 -17.5 -19.5t-40.5 -9.5h-51q-14 0 -16 -4q-2 -2 -2 -8v-2l2 -2h49q-10 -20 -17.5 -38.5t-11.5 -23.5q-4 -12 -18 -18l-105 -43 l-8 -4q-4 -2 -18 -2t-19 2l-8 4l-102 43q-10 4 -13.5 9t-7.5 9q-4 6 -12 27t-14 35h51v4q0 6 -2 8q-4 4 -17 4h-53q-27 0 -39 9.5t-16 19.5q-4 6 -15.5 32.5t-19.5 43.5z" />
<glyph unicode="&#xf7;" d="M168 801h211q10 0 17 2t12 2l24 12q2 0 6 2q8 4 17 4q10 0 18 -4q4 -2 6 -2l25 -10q4 -2 11 -4t17 -2h209q-6 -16 -17 -43t-15 -33q-4 -10 -17.5 -19.5t-40.5 -9.5h-51q-14 0 -16 -4q-2 -2 -2 -8v-2l2 -2h49q-10 -20 -17.5 -38.5t-11.5 -23.5q-4 -12 -18 -18l-105 -43 l-8 -4q-4 -2 -18 -2t-19 2l-8 4l-102 43q-10 4 -13.5 9t-7.5 9q-4 6 -12 27t-14 35h51v4q0 6 -2 8q-4 4 -17 4h-53q-27 0 -39 9.5t-16 19.5q-4 6 -15.5 32.5t-19.5 43.5z" />
<glyph unicode="&#xf8;" d="M168 801h211q10 0 17 2t12 2l24 12q2 0 6 2q8 4 17 4q10 0 18 -4q4 -2 6 -2l25 -10q4 -2 11 -4t17 -2h209q-6 -16 -17 -43t-15 -33q-4 -10 -17.5 -19.5t-40.5 -9.5h-51q-14 0 -16 -4q-2 -2 -2 -8v-2l2 -2h49q-10 -20 -17.5 -38.5t-11.5 -23.5q-4 -12 -18 -18l-105 -43 l-8 -4q-4 -2 -18 -2t-19 2l-8 4l-102 43q-10 4 -13.5 9t-7.5 9q-4 6 -12 27t-14 35h51v4q0 6 -2 8q-4 4 -17 4h-53q-27 0 -39 9.5t-16 19.5q-4 6 -15.5 32.5t-19.5 43.5z" />
<glyph unicode="&#xf9;" horiz-adv-x="946" d="M225 166v1196q0 16 13.5 27.5t29.5 11.5h101v-1208q0 -31 21.5 -53.5t51.5 -22.5h23q33 0 55.5 22.5t22.5 53.5v1208h143v-1235q-2 -72 -51 -122t-121 -52v-2h-111q-37 0 -69.5 14t-56 38t-38 55.5t-14.5 68.5zM319 1630h87q4 0 30.5 -4t40.5 -41l43 -106v-9 q-4 -8 -14 -8h-111z" />
<glyph unicode="&#xfa;" horiz-adv-x="946" d="M225 166q0 -37 14.5 -68.5t38 -55.5t56.5 -38t69 -14h111q72 4 121 54t51 122v1235h-143v-1208q0 -33 -22.5 -54.5t-55.5 -21.5h-23q-31 0 -52 22.5t-21 53.5v1208h-101q-16 0 -29.5 -11.5t-13.5 -27.5v-1196zM406 1462l77 168h111q14 0 14 -8q0 -4 -2 -8l-41 -107 q-16 -37 -41.5 -41t-29.5 -4h-88z" />
<glyph unicode="&#xfb;" horiz-adv-x="966" d="M225 166q0 -37 14.5 -68.5t38 -55.5t56.5 -38t69 -14h111q72 4 121 54t51 122v1235h-143v-1208q0 -33 -22.5 -54.5t-55.5 -21.5h-23q-31 0 -52 22.5t-21 53.5v1208h-101q-16 0 -29.5 -11.5t-13.5 -27.5v-1196zM289 1462l117 168h100l115 -168h-58q-4 0 -27.5 4t-50.5 41 l-30 45l-31 -45q-25 -37 -49.5 -41t-28.5 -4h-57z" />
<glyph unicode="&#xfc;" d="M168 801h211q10 0 17 2t12 2l24 12q2 0 6 2q8 4 17 4q10 0 18 -4q4 -2 6 -2l25 -10q4 -2 11 -4t17 -2h209q-6 -16 -17 -43t-15 -33q-4 -10 -17.5 -19.5t-40.5 -9.5h-51q-14 0 -16 -4q-2 -2 -2 -8v-2l2 -2h49q-10 -20 -17.5 -38.5t-11.5 -23.5q-4 -12 -18 -18l-105 -43 l-8 -4q-4 -2 -18 -2t-19 2l-8 4l-102 43q-10 4 -13.5 9t-7.5 9q-4 6 -12 27t-14 35h51v4q0 6 -2 8q-4 4 -17 4h-53q-27 0 -39 9.5t-16 19.5q-4 6 -15.5 32.5t-19.5 43.5z" />
<glyph unicode="&#xfd;" d="M168 801h211q10 0 17 2t12 2l24 12q2 0 6 2q8 4 17 4q10 0 18 -4q4 -2 6 -2l25 -10q4 -2 11 -4t17 -2h209q-6 -16 -17 -43t-15 -33q-4 -10 -17.5 -19.5t-40.5 -9.5h-51q-14 0 -16 -4q-2 -2 -2 -8v-2l2 -2h49q-10 -20 -17.5 -38.5t-11.5 -23.5q-4 -12 -18 -18l-105 -43 l-8 -4q-4 -2 -18 -2t-19 2l-8 4l-102 43q-10 4 -13.5 9t-7.5 9q-4 6 -12 27t-14 35h51v4q0 6 -2 8q-4 4 -17 4h-53q-27 0 -39 9.5t-16 19.5q-4 6 -15.5 32.5t-19.5 43.5z" />
<glyph unicode="&#xfe;" d="M168 801h211q10 0 17 2t12 2l24 12q2 0 6 2q8 4 17 4q10 0 18 -4q4 -2 6 -2l25 -10q4 -2 11 -4t17 -2h209q-6 -16 -17 -43t-15 -33q-4 -10 -17.5 -19.5t-40.5 -9.5h-51q-14 0 -16 -4q-2 -2 -2 -8v-2l2 -2h49q-10 -20 -17.5 -38.5t-11.5 -23.5q-4 -12 -18 -18l-105 -43 l-8 -4q-4 -2 -18 -2t-19 2l-8 4l-102 43q-10 4 -13.5 9t-7.5 9q-4 6 -12 27t-14 35h51v4q0 6 -2 8q-4 4 -17 4h-53q-27 0 -39 9.5t-16 19.5q-4 6 -15.5 32.5t-19.5 43.5z" />
<glyph unicode="&#xff;" d="M168 801h211q10 0 17 2t12 2l24 12q2 0 6 2q8 4 17 4q10 0 18 -4q4 -2 6 -2l25 -10q4 -2 11 -4t17 -2h209q-6 -16 -17 -43t-15 -33q-4 -10 -17.5 -19.5t-40.5 -9.5h-51q-14 0 -16 -4q-2 -2 -2 -8v-2l2 -2h49q-10 -20 -17.5 -38.5t-11.5 -23.5q-4 -12 -18 -18l-105 -43 l-8 -4q-4 -2 -18 -2t-19 2l-8 4l-102 43q-10 4 -13.5 9t-7.5 9q-4 6 -12 27t-14 35h51v4q0 6 -2 8q-4 4 -17 4h-53q-27 0 -39 9.5t-16 19.5q-4 6 -15.5 32.5t-19.5 43.5z" />
<glyph unicode="&#x152;" d="M168 801h211q10 0 17 2t12 2l24 12q2 0 6 2q8 4 17 4q10 0 18 -4q4 -2 6 -2l25 -10q4 -2 11 -4t17 -2h209q-6 -16 -17 -43t-15 -33q-4 -10 -17.5 -19.5t-40.5 -9.5h-51q-14 0 -16 -4q-2 -2 -2 -8v-2l2 -2h49q-10 -20 -17.5 -38.5t-11.5 -23.5q-4 -12 -18 -18l-105 -43 l-8 -4q-4 -2 -18 -2t-19 2l-8 4l-102 43q-10 4 -13.5 9t-7.5 9q-4 6 -12 27t-14 35h51v4q0 6 -2 8q-4 4 -17 4h-53q-27 0 -39 9.5t-16 19.5q-4 6 -15.5 32.5t-19.5 43.5z" />
<glyph unicode="&#x153;" d="M168 801h211q10 0 17 2t12 2l24 12q2 0 6 2q8 4 17 4q10 0 18 -4q4 -2 6 -2l25 -10q4 -2 11 -4t17 -2h209q-6 -16 -17 -43t-15 -33q-4 -10 -17.5 -19.5t-40.5 -9.5h-51q-14 0 -16 -4q-2 -2 -2 -8v-2l2 -2h49q-10 -20 -17.5 -38.5t-11.5 -23.5q-4 -12 -18 -18l-105 -43 l-8 -4q-4 -2 -18 -2t-19 2l-8 4l-102 43q-10 4 -13.5 9t-7.5 9q-4 6 -12 27t-14 35h51v4q0 6 -2 8q-4 4 -17 4h-53q-27 0 -39 9.5t-16 19.5q-4 6 -15.5 32.5t-19.5 43.5z" />
<glyph unicode="&#x178;" d="M168 801h211q10 0 17 2t12 2l24 12q2 0 6 2q8 4 17 4q10 0 18 -4q4 -2 6 -2l25 -10q4 -2 11 -4t17 -2h209q-6 -16 -17 -43t-15 -33q-4 -10 -17.5 -19.5t-40.5 -9.5h-51q-14 0 -16 -4q-2 -2 -2 -8v-2l2 -2h49q-10 -20 -17.5 -38.5t-11.5 -23.5q-4 -12 -18 -18l-105 -43 l-8 -4q-4 -2 -18 -2t-19 2l-8 4l-102 43q-10 4 -13.5 9t-7.5 9q-4 6 -12 27t-14 35h51v4q0 6 -2 8q-4 4 -17 4h-53q-27 0 -39 9.5t-16 19.5q-4 6 -15.5 32.5t-19.5 43.5z" />
<glyph unicode="&#x2c6;" horiz-adv-x="579" d="M289 1700l117 168h100l115 -168h-58q-4 0 -27.5 4t-50.5 41l-30 45l-31 -45q-25 -37 -49.5 -41t-28.5 -4h-57z" />
<glyph unicode="&#x2dc;" d="M168 801h211q10 0 17 2t12 2l24 12q2 0 6 2q8 4 17 4q10 0 18 -4q4 -2 6 -2l25 -10q4 -2 11 -4t17 -2h209q-6 -16 -17 -43t-15 -33q-4 -10 -17.5 -19.5t-40.5 -9.5h-51q-14 0 -16 -4q-2 -2 -2 -8v-2l2 -2h49q-10 -20 -17.5 -38.5t-11.5 -23.5q-4 -12 -18 -18l-105 -43 l-8 -4q-4 -2 -18 -2t-19 2l-8 4l-102 43q-10 4 -13.5 9t-7.5 9q-4 6 -12 27t-14 35h51v4q0 6 -2 8q-4 4 -17 4h-53q-27 0 -39 9.5t-16 19.5q-4 6 -15.5 32.5t-19.5 43.5z" />
<glyph unicode="&#x2000;" horiz-adv-x="934" />
<glyph unicode="&#x2001;" horiz-adv-x="1868" />
<glyph unicode="&#x2002;" horiz-adv-x="934" />
<glyph unicode="&#x2003;" horiz-adv-x="1868" />
<glyph unicode="&#x2004;" horiz-adv-x="622" />
<glyph unicode="&#x2005;" horiz-adv-x="467" />
<glyph unicode="&#x2006;" horiz-adv-x="311" />
<glyph unicode="&#x2007;" horiz-adv-x="311" />
<glyph unicode="&#x2008;" horiz-adv-x="233" />
<glyph unicode="&#x2009;" horiz-adv-x="373" />
<glyph unicode="&#x200a;" horiz-adv-x="103" />
<glyph unicode="&#x2010;" horiz-adv-x="854" d="M317 623v98q0 18 13.5 31.5t29.5 13.5h232v-100q0 -18 -12.5 -30.5t-30.5 -12.5h-232z" />
<glyph unicode="&#x2011;" horiz-adv-x="854" d="M317 623v98q0 18 13.5 31.5t29.5 13.5h232v-100q0 -18 -12.5 -30.5t-30.5 -12.5h-232z" />
<glyph unicode="&#x2012;" horiz-adv-x="854" d="M317 623v98q0 18 13.5 31.5t29.5 13.5h232v-100q0 -18 -12.5 -30.5t-30.5 -12.5h-232z" />
<glyph unicode="&#x2013;" horiz-adv-x="854" d="M317 623v98q0 18 13.5 31.5t29.5 13.5h232v-100q0 -18 -12.5 -30.5t-30.5 -12.5h-232z" />
<glyph unicode="&#x2014;" horiz-adv-x="931" d="M240 623v98q0 18 13 31.5t30 13.5h387v-100q0 -18 -12.5 -30.5t-30.5 -12.5h-387z" />
<glyph unicode="&#x201a;" d="M168 801h211q10 0 17 2t12 2l24 12q2 0 6 2q8 4 17 4q10 0 18 -4q4 -2 6 -2l25 -10q4 -2 11 -4t17 -2h209q-6 -16 -17 -43t-15 -33q-4 -10 -17.5 -19.5t-40.5 -9.5h-51q-14 0 -16 -4q-2 -2 -2 -8v-2l2 -2h49q-10 -20 -17.5 -38.5t-11.5 -23.5q-4 -12 -18 -18l-105 -43 l-8 -4q-4 -2 -18 -2t-19 2l-8 4l-102 43q-10 4 -13.5 9t-7.5 9q-4 6 -12 27t-14 35h51v4q0 6 -2 8q-4 4 -17 4h-53q-27 0 -39 9.5t-16 19.5q-4 6 -15.5 32.5t-19.5 43.5z" />
<glyph unicode="&#x201e;" d="M168 801h211q10 0 17 2t12 2l24 12q2 0 6 2q8 4 17 4q10 0 18 -4q4 -2 6 -2l25 -10q4 -2 11 -4t17 -2h209q-6 -16 -17 -43t-15 -33q-4 -10 -17.5 -19.5t-40.5 -9.5h-51q-14 0 -16 -4q-2 -2 -2 -8v-2l2 -2h49q-10 -20 -17.5 -38.5t-11.5 -23.5q-4 -12 -18 -18l-105 -43 l-8 -4q-4 -2 -18 -2t-19 2l-8 4l-102 43q-10 4 -13.5 9t-7.5 9q-4 6 -12 27t-14 35h51v4q0 6 -2 8q-4 4 -17 4h-53q-27 0 -39 9.5t-16 19.5q-4 6 -15.5 32.5t-19.5 43.5z" />
<glyph unicode="&#x2022;" d="M168 801h211q10 0 17 2t12 2l24 12q2 0 6 2q8 4 17 4q10 0 18 -4q4 -2 6 -2l25 -10q4 -2 11 -4t17 -2h209q-6 -16 -17 -43t-15 -33q-4 -10 -17.5 -19.5t-40.5 -9.5h-51q-14 0 -16 -4q-2 -2 -2 -8v-2l2 -2h49q-10 -20 -17.5 -38.5t-11.5 -23.5q-4 -12 -18 -18l-105 -43 l-8 -4q-4 -2 -18 -2t-19 2l-8 4l-102 43q-10 4 -13.5 9t-7.5 9q-4 6 -12 27t-14 35h51v4q0 6 -2 8q-4 4 -17 4h-53q-27 0 -39 9.5t-16 19.5q-4 6 -15.5 32.5t-19.5 43.5z" />
<glyph unicode="&#x2026;" d="M168 801h211q10 0 17 2t12 2l24 12q2 0 6 2q8 4 17 4q10 0 18 -4q4 -2 6 -2l25 -10q4 -2 11 -4t17 -2h209q-6 -16 -17 -43t-15 -33q-4 -10 -17.5 -19.5t-40.5 -9.5h-51q-14 0 -16 -4q-2 -2 -2 -8v-2l2 -2h49q-10 -20 -17.5 -38.5t-11.5 -23.5q-4 -12 -18 -18l-105 -43 l-8 -4q-4 -2 -18 -2t-19 2l-8 4l-102 43q-10 4 -13.5 9t-7.5 9q-4 6 -12 27t-14 35h51v4q0 6 -2 8q-4 4 -17 4h-53q-27 0 -39 9.5t-16 19.5q-4 6 -15.5 32.5t-19.5 43.5z" />
<glyph unicode="&#x202f;" horiz-adv-x="373" />
<glyph unicode="&#x2039;" d="M168 801h211q10 0 17 2t12 2l24 12q2 0 6 2q8 4 17 4q10 0 18 -4q4 -2 6 -2l25 -10q4 -2 11 -4t17 -2h209q-6 -16 -17 -43t-15 -33q-4 -10 -17.5 -19.5t-40.5 -9.5h-51q-14 0 -16 -4q-2 -2 -2 -8v-2l2 -2h49q-10 -20 -17.5 -38.5t-11.5 -23.5q-4 -12 -18 -18l-105 -43 l-8 -4q-4 -2 -18 -2t-19 2l-8 4l-102 43q-10 4 -13.5 9t-7.5 9q-4 6 -12 27t-14 35h51v4q0 6 -2 8q-4 4 -17 4h-53q-27 0 -39 9.5t-16 19.5q-4 6 -15.5 32.5t-19.5 43.5z" />
<glyph unicode="&#x203a;" d="M168 801h211q10 0 17 2t12 2l24 12q2 0 6 2q8 4 17 4q10 0 18 -4q4 -2 6 -2l25 -10q4 -2 11 -4t17 -2h209q-6 -16 -17 -43t-15 -33q-4 -10 -17.5 -19.5t-40.5 -9.5h-51q-14 0 -16 -4q-2 -2 -2 -8v-2l2 -2h49q-10 -20 -17.5 -38.5t-11.5 -23.5q-4 -12 -18 -18l-105 -43 l-8 -4q-4 -2 -18 -2t-19 2l-8 4l-102 43q-10 4 -13.5 9t-7.5 9q-4 6 -12 27t-14 35h51v4q0 6 -2 8q-4 4 -17 4h-53q-27 0 -39 9.5t-16 19.5q-4 6 -15.5 32.5t-19.5 43.5z" />
<glyph unicode="&#x205f;" horiz-adv-x="467" />
<glyph unicode="&#x20ac;" d="M168 801h211q10 0 17 2t12 2l24 12q2 0 6 2q8 4 17 4q10 0 18 -4q4 -2 6 -2l25 -10q4 -2 11 -4t17 -2h209q-6 -16 -17 -43t-15 -33q-4 -10 -17.5 -19.5t-40.5 -9.5h-51q-14 0 -16 -4q-2 -2 -2 -8v-2l2 -2h49q-10 -20 -17.5 -38.5t-11.5 -23.5q-4 -12 -18 -18l-105 -43 l-8 -4q-4 -2 -18 -2t-19 2l-8 4l-102 43q-10 4 -13.5 9t-7.5 9q-4 6 -12 27t-14 35h51v4q0 6 -2 8q-4 4 -17 4h-53q-27 0 -39 9.5t-16 19.5q-4 6 -15.5 32.5t-19.5 43.5z" />
<glyph unicode="&#x2122;" d="M168 801h211q10 0 17 2t12 2l24 12q2 0 6 2q8 4 17 4q10 0 18 -4q4 -2 6 -2l25 -10q4 -2 11 -4t17 -2h209q-6 -16 -17 -43t-15 -33q-4 -10 -17.5 -19.5t-40.5 -9.5h-51q-14 0 -16 -4q-2 -2 -2 -8v-2l2 -2h49q-10 -20 -17.5 -38.5t-11.5 -23.5q-4 -12 -18 -18l-105 -43 l-8 -4q-4 -2 -18 -2t-19 2l-8 4l-102 43q-10 4 -13.5 9t-7.5 9q-4 6 -12 27t-14 35h51v4q0 6 -2 8q-4 4 -17 4h-53q-27 0 -39 9.5t-16 19.5q-4 6 -15.5 32.5t-19.5 43.5z" />
<glyph unicode="&#x25fc;" horiz-adv-x="1402" d="M0 0v1403h1403v-1403h-1403z" />
<glyph unicode="&#xfb01;" d="M168 801h211q10 0 17 2t12 2l24 12q2 0 6 2q8 4 17 4q10 0 18 -4q4 -2 6 -2l25 -10q4 -2 11 -4t17 -2h209q-6 -16 -17 -43t-15 -33q-4 -10 -17.5 -19.5t-40.5 -9.5h-51q-14 0 -16 -4q-2 -2 -2 -8v-2l2 -2h49q-10 -20 -17.5 -38.5t-11.5 -23.5q-4 -12 -18 -18l-105 -43 l-8 -4q-4 -2 -18 -2t-19 2l-8 4l-102 43q-10 4 -13.5 9t-7.5 9q-4 6 -12 27t-14 35h51v4q0 6 -2 8q-4 4 -17 4h-53q-27 0 -39 9.5t-16 19.5q-4 6 -15.5 32.5t-19.5 43.5z" />
<glyph unicode="&#xfb02;" d="M168 801h211q10 0 17 2t12 2l24 12q2 0 6 2q8 4 17 4q10 0 18 -4q4 -2 6 -2l25 -10q4 -2 11 -4t17 -2h209q-6 -16 -17 -43t-15 -33q-4 -10 -17.5 -19.5t-40.5 -9.5h-51q-14 0 -16 -4q-2 -2 -2 -8v-2l2 -2h49q-10 -20 -17.5 -38.5t-11.5 -23.5q-4 -12 -18 -18l-105 -43 l-8 -4q-4 -2 -18 -2t-19 2l-8 4l-102 43q-10 4 -13.5 9t-7.5 9q-4 6 -12 27t-14 35h51v4q0 6 -2 8q-4 4 -17 4h-53q-27 0 -39 9.5t-16 19.5q-4 6 -15.5 32.5t-19.5 43.5z" />
</font>
</defs>
</svg>
