<?xml version="1.0" encoding="utf-8"?>
<!-- Generator: Adobe Illustrator 21.0.2, SVG Export Plug-In . SVG Version: 6.00 Build 0)  -->
<svg version="1.1" id="レイヤー_1" xmlns="http://www.w3.org/2000/svg" xmlns:xlink="http://www.w3.org/1999/xlink" x="0px"
	 y="0px" viewBox="0 0 409.4 368.4" style="enable-background:new 0 0 409.4 368.4;" xml:space="preserve">
<style type="text/css">
	.st0{fill:url(#SVGID_1_);}
	.st1{fill:url(#SVGID_2_);}
	.st2{fill:url(#SVGID_3_);}
	.st3{fill:url(#SVGID_4_);}
	.st4{fill:url(#SVGID_5_);}
	.st5{fill:url(#SVGID_6_);}
	.st6{fill:url(#SVGID_7_);}
	.st7{fill:#FBF6C5;}
	.st8{fill:#545251;}
	.st9{fill:#727171;}
	.st10{fill:#EFEFEF;}
	.st11{fill:#898989;}
	.st12{fill:#D5D5D6;}
	.st13{fill:#61605F;}
	.st14{fill:#B1B1B2;}
	.st15{fill:#615F5F;}
	.st16{fill:#F7F8F8;}
	.st17{fill:#C9CACA;}
	.st18{fill:#85C5ED;}
	.st19{fill:#DCDDDD;}
	.st20{fill:#C8C9C9;}
	.st21{fill:#6F6F6F;}
	.st22{fill:#A2A3A3;}
	.st23{fill:#6BA1C1;}
	.st24{fill:#B2B2B3;}
	.st25{fill:#C1C2C2;}
	.st26{fill:#DEDFDF;}
</style>
<g>
	
		<linearGradient id="SVGID_1_" gradientUnits="userSpaceOnUse" x1="-97.4387" y1="-134.2445" x2="-86.8438" y2="-134.2445" gradientTransform="matrix(0 -29.5615 -29.5615 0 -3762.5164 -2563.907)">
		<stop  offset="0" style="stop-color:#0072B4"/>
		<stop  offset="1" style="stop-color:#00254B"/>
	</linearGradient>
	<path class="st0" d="M206.3,3.5C120,3.5,49.8,73.7,49.8,160c0,7.4,0.5,14.6,1.5,21.8c11.4,1.1,24.6,3.3,39.6,7.6l9.7-3.4
		c6.9-45.7,46.3-80.8,94-80.8l0,0c24.2,0,46.4,9.1,63.2,24l58.6-37.8l25.9,40.1l-26,16.8l0,0l-31.9,20.6c0.4,1.2,0.8,2.3,1.2,3.5
		l6.8,5.5l63.1-33.2c0.8-0.4,1.6-0.6,2.5-0.6c1.6,0,3.1,0.7,4.2,2l0.2,0.3C355.2,66.4,287.9,3.5,206.3,3.5"/>
	
		<linearGradient id="SVGID_2_" gradientUnits="userSpaceOnUse" x1="-106.8611" y1="-133.8944" x2="-96.2742" y2="-133.8944" gradientTransform="matrix(37.6865 0 0 -37.6865 4035.7559 -4791.8784)">
		<stop  offset="0" style="stop-color:#3B7096"/>
		<stop  offset="0.1826" style="stop-color:#396E95"/>
		<stop  offset="0.3404" style="stop-color:#306A91"/>
		<stop  offset="0.489" style="stop-color:#20628B"/>
		<stop  offset="0.632" style="stop-color:#005881"/>
		<stop  offset="0.7711" style="stop-color:#004973"/>
		<stop  offset="0.9052" style="stop-color:#00365E"/>
		<stop  offset="1" style="stop-color:#00254B"/>
	</linearGradient>
	<path class="st1" d="M206.7,364.3c-0.1,0-0.3,0-0.4,0c-0.1,0-0.2,0-0.3,0c0.1,0,0.2,0,0.3,0C206.4,364.3,206.5,364.3,206.7,364.3
		 M205.7,364.3c0.1,0,0.1,0,0.2,0C205.8,364.3,205.7,364.3,205.7,364.3 M205.4,364.3c0.1,0,0.1,0,0.2,0
		C205.5,364.3,205.4,364.3,205.4,364.3 M207.1,364.3c-0.1,0-0.3,0-0.4,0C206.9,364.3,207,364.3,207.1,364.3 M205.1,364.3
		c0.1,0,0.1,0,0.2,0C205.2,364.3,205.1,364.3,205.1,364.3 M207.6,364.3c-0.1,0-0.2,0-0.4,0C207.3,364.3,207.5,364.3,207.6,364.3
		 M204.8,364.3c0,0,0.1,0,0.2,0C204.9,364.3,204.8,364.3,204.8,364.3 M204.5,364.3c0.1,0,0.1,0,0.2,0
		C204.6,364.3,204.6,364.3,204.5,364.3 M208,364.3c-0.1,0-0.3,0-0.4,0C207.8,364.3,207.9,364.3,208,364.3 M204.2,364.3
		c0.1,0,0.2,0,0.2,0C204.3,364.3,204.2,364.3,204.2,364.3 M208.5,364.3c-0.1,0-0.3,0-0.4,0C208.3,364.3,208.4,364.3,208.5,364.3
		 M203.8,364.3c0.1,0,0.2,0,0.3,0C204,364.3,203.9,364.3,203.8,364.3 M208.9,364.3c-0.1,0-0.3,0-0.4,0
		C208.7,364.3,208.8,364.3,208.9,364.3 M203.5,364.3c0.1,0,0.2,0,0.3,0C203.7,364.3,203.6,364.3,203.5,364.3 M203.2,364.3
		c0.1,0,0.2,0,0.3,0C203.4,364.3,203.3,364.3,203.2,364.3 M209.4,364.3c-0.1,0-0.3,0-0.4,0C209.2,364.3,209.3,364.3,209.4,364.3
		 M202.9,364.3c0.1,0,0.2,0,0.3,0C203.1,364.3,203,364.3,202.9,364.3 M209.8,364.3c-0.1,0-0.2,0-0.3,0
		C209.6,364.3,209.7,364.3,209.8,364.3 M202.6,364.3c0.1,0,0.2,0,0.3,0C202.8,364.3,202.7,364.3,202.6,364.3 M202.3,364.3
		c0.1,0,0.2,0,0.3,0C202.5,364.3,202.4,364.3,202.3,364.3 M210.3,364.3c-0.1,0-0.2,0-0.4,0C210.1,364.3,210.2,364.3,210.3,364.3
		 M210.8,364.3c-0.1,0-0.2,0-0.4,0C210.5,364.3,210.7,364.3,210.8,364.3 M211.2,364.3c-0.1,0-0.3,0-0.4,0
		C211,364.3,211.1,364.3,211.2,364.3 M211.7,364.2c-0.1,0-0.2,0-0.4,0C211.5,364.3,211.6,364.2,211.7,364.2 M212.1,364.2
		c-0.1,0-0.2,0-0.3,0C211.9,364.2,212,364.2,212.1,364.2 M212.6,364.2c-0.1,0-0.2,0-0.4,0C212.4,364.2,212.5,364.2,212.6,364.2
		 M213,364.2c-0.1,0-0.2,0-0.3,0C212.8,364.2,212.9,364.2,213,364.2 M213.5,364.2c-0.1,0-0.2,0-0.3,0
		C213.3,364.2,213.4,364.2,213.5,364.2 M213.9,364.2c-0.1,0-0.2,0-0.3,0C213.7,364.2,213.8,364.2,213.9,364.2 M214.3,364.2
		c-0.1,0-0.1,0-0.2,0C214.2,364.2,214.3,364.2,214.3,364.2 M214.8,364.1c-0.1,0-0.2,0-0.3,0C214.6,364.1,214.7,364.1,214.8,364.1
		 M215.2,364.1c-0.1,0-0.1,0-0.2,0C215.1,364.1,215.2,364.1,215.2,364.1 M215.7,364.1c-0.1,0-0.1,0-0.2,0
		C215.6,364.1,215.7,364.1,215.7,364.1 M216,364.1c0,0-0.1,0-0.1,0C216,364.1,216,364.1,216,364.1 M216.6,364
		C216.5,364.1,216.5,364.1,216.6,364C216.5,364.1,216.5,364.1,216.6,364 M217.4,364L217.4,364L217.4,364 M8.7,218.4l-0.2,0.1
		C34.2,301.7,111,362.5,202.3,364.3C111,362.6,34.4,301.7,8.7,218.4 M100.5,185.8l-9.7,3.4v0L100.5,185.8
		C100.5,185.8,100.5,185.9,100.5,185.8 M357.7,144c-0.8,0-1.7,0.2-2.5,0.6l-63.1,33.2l-6.8-5.5c2.7,8.8,4.1,18.1,4.1,27.8h-10.2l0,0
		l0,0h10.2v6.2l53.6-29.2l-63.8,59.3v13.1v7.2v13.6c9.3,1.2,18.6,1.9,27.8,1.9c27.7,0,54.7-5.5,80.3-15.2
		c8.9-16.2,15.7-33.8,20-52.3l-45.4-58.3l-0.2-0.3C360.9,144.7,359.3,144,357.7,144"/>
	
		<linearGradient id="SVGID_3_" gradientUnits="userSpaceOnUse" x1="-107.4341" y1="-131.7561" x2="-96.8475" y2="-131.7561" gradientTransform="matrix(17.9922 0 0 -17.9922 2084.3445 -2086.6741)">
		<stop  offset="0" style="stop-color:#3B7096"/>
		<stop  offset="0.3345" style="stop-color:#407399"/>
		<stop  offset="0.6234" style="stop-color:#4D7DA3"/>
		<stop  offset="0.8946" style="stop-color:#628FB4"/>
		<stop  offset="1" style="stop-color:#6C98BD"/>
	</linearGradient>
	<path class="st2" d="M341.8,216.7l-5.3-13.2L151.4,356.8c17.5,4.8,35.9,7.5,54.9,7.5c9.1,0,18.1-0.8,26.9-1.9L341.8,216.7z"/>
	
		<linearGradient id="SVGID_4_" gradientUnits="userSpaceOnUse" x1="-107.9251" y1="-130.2354" x2="-97.3326" y2="-130.2354" gradientTransform="matrix(24.9082 0 0 -24.9082 2767.5449 -3037.2527)">
		<stop  offset="0" style="stop-color:#3B7096"/>
		<stop  offset="0.3345" style="stop-color:#407399"/>
		<stop  offset="0.6234" style="stop-color:#4D7DA3"/>
		<stop  offset="0.8946" style="stop-color:#628FB4"/>
		<stop  offset="1" style="stop-color:#6C98BD"/>
	</linearGradient>
	<polyline class="st3" points="343.2,177 289.6,206.3 289.6,216 279.4,216 279.4,236.3 343.2,177 	"/>
	
		<linearGradient id="SVGID_5_" gradientUnits="userSpaceOnUse" x1="-119.2765" y1="-121.9732" x2="-108.6621" y2="-121.9732" gradientTransform="matrix(12.0947 0 0 -12.0947 1485.3025 -1286.2874)">
		<stop  offset="0" style="stop-color:#3B7096"/>
		<stop  offset="0.3345" style="stop-color:#407399"/>
		<stop  offset="0.6234" style="stop-color:#4D7DA3"/>
		<stop  offset="0.8946" style="stop-color:#628FB4"/>
		<stop  offset="1" style="stop-color:#6C98BD"/>
	</linearGradient>
	<path class="st4" d="M100.5,185.9l-9.7,3.4c2.9,0.8,5.9,1.7,9,2.7C100,189.9,100.2,187.9,100.5,185.9"/>
	
		<linearGradient id="SVGID_6_" gradientUnits="userSpaceOnUse" x1="-107.2718" y1="-134.2447" x2="-96.685" y2="-134.2447" gradientTransform="matrix(36.4785 0 0 -36.4785 3914.6008 -4624.4209)">
		<stop  offset="0" style="stop-color:#366F69"/>
		<stop  offset="1" style="stop-color:#6C928D"/>
	</linearGradient>
	<path class="st5" d="M35.3,180.9c-22,0-33.8,4.5-33.8,4.5c1.5,11.3,4,22.3,7.2,32.9C34.4,301.7,111,362.6,202.3,364.3c0,0,0,0,0,0
		c0.1,0,0.2,0,0.3,0c0,0,0,0,0.1,0c0.1,0,0.2,0,0.3,0c0,0,0,0,0,0c0.1,0,0.2,0,0.3,0c0,0,0,0,0,0c0.1,0,0.2,0,0.3,0c0,0,0,0,0,0
		c0.1,0,0.2,0,0.3,0c0,0,0,0,0,0c0.1,0,0.2,0,0.3,0c0,0,0,0,0,0c0.1,0,0.2,0,0.2,0c0,0,0.1,0,0.1,0c0.1,0,0.1,0,0.2,0
		c0,0,0.1,0,0.1,0c0.1,0,0.1,0,0.2,0c0,0,0.1,0,0.1,0c0.1,0,0.1,0,0.2,0c0,0,0.1,0,0.1,0c0.1,0,0.1,0,0.2,0c0,0,0.1,0,0.1,0
		c0.1,0,0.1,0,0.2,0c0,0,0,0,0.1,0c0.1,0,0.2,0,0.3,0c0.1,0,0.3,0,0.4,0c0,0,0,0,0.1,0c0.1,0,0.3,0,0.4,0c0,0,0,0,0.1,0
		c0.1,0,0.2,0,0.4,0c0,0,0,0,0.1,0c0.1,0,0.3,0,0.4,0c0,0,0.1,0,0.1,0c0.1,0,0.3,0,0.4,0l0,0c0.1,0,0.3,0,0.4,0c0,0,0.1,0,0.1,0
		c0.1,0,0.3,0,0.4,0c0,0,0,0,0.1,0c0.1,0,0.2,0,0.3,0c0,0,0.1,0,0.1,0c0.1,0,0.3,0,0.4,0c0,0,0.1,0,0.1,0c0.1,0,0.2,0,0.4,0
		c0,0,0,0,0,0c0.1,0,0.3,0,0.4,0c0,0,0.1,0,0.1,0c0.1,0,0.2,0,0.4,0c0,0,0.1,0,0.1,0c0.1,0,0.2,0,0.3,0c0,0,0.1,0,0.1,0
		c0.1,0,0.2,0,0.4,0c0,0,0.1,0,0.1,0c0.1,0,0.2,0,0.3,0c0,0,0.1,0,0.1,0c0.1,0,0.2,0,0.3,0c0,0,0.1,0,0.2,0c0.1,0,0.2,0,0.3,0
		c0.1,0,0.1,0,0.2,0c0.1,0,0.2,0,0.2,0c0.1,0,0.1,0,0.2,0c0.1,0,0.2,0,0.3,0c0.1,0,0.1,0,0.2,0c0.1,0,0.1,0,0.2,0c0.1,0,0.2,0,0.3,0
		c0,0,0.1,0,0.2,0c0.1,0,0.1,0,0.2,0c0,0,0.1,0,0.1,0c0.1,0,0.3,0,0.4,0c0,0,0.1,0,0.1,0c0.3,0,0.5,0,0.8,0l0,0
		c73.5-3.9,136.8-46.2,170.3-107.2c-0.1,0-0.1,0-0.2,0.1c-25.6,9.8-52.6,15.2-80.3,15.2c-9.2,0-18.4-0.6-27.8-1.9v25.6v22.7H109.6
		V216H99.5v-15.9c0-2.7,0.1-5.4,0.3-8.1c-3.1-1-6.1-1.9-9-2.7v0c-14.9-4.3-28.1-6.5-39.6-7.6C45.5,181.2,40.1,180.9,35.3,180.9"/>
	
		<linearGradient id="SVGID_7_" gradientUnits="userSpaceOnUse" x1="-104.5383" y1="-127.7009" x2="-93.9512" y2="-127.7009" gradientTransform="matrix(19.5781 0 0 -19.5781 2246.9053 -2313.1709)">
		<stop  offset="0" style="stop-color:#3B7096"/>
		<stop  offset="0.3345" style="stop-color:#407399"/>
		<stop  offset="0.6234" style="stop-color:#4D7DA3"/>
		<stop  offset="0.8946" style="stop-color:#628FB4"/>
		<stop  offset="1" style="stop-color:#6C98BD"/>
	</linearGradient>
	<path class="st6" d="M361.9,146c-1.6-2-4.4-2.6-6.7-1.4l-63.1,33.2l-25.5-20.7c-1.5-1.2-3.6-1.5-5.4-0.8l-61,27.4
		c59.6-11.9,59.6-11.9,59.6-11.9l19.4,12.4l-60,45.9l132.3-64.4l15.9,32.6l16.8-3.5c0,0,10.5,8.7,21.1,17.9c0.7-2.7,1.6-5.2,2.2-7.9
		L361.9,146z"/>
	<path class="st7" d="M251.3,55.3c4.3,1.4,6.6,6.1,5.1,10.4c-1.4,4.3-6.1,6.6-10.4,5.2c-4.3-1.4-6.6-6.1-5.1-10.4
		C242.3,56.2,246.9,53.9,251.3,55.3z"/>
	<path class="st7" d="M98.8,127c-2.7-0.9-4.1-3.8-3.2-6.5c0.9-2.7,3.8-4.1,6.5-3.2c2.7,0.9,4.1,3.8,3.2,6.5
		C104.4,126.4,101.5,127.9,98.8,127z"/>
	<polygon class="st7" points="188.4,64.7 184.6,74.7 178.9,65.6 168.1,65.2 175,56.9 172.1,46.5 182.1,50.5 191.1,44.5 190.4,55.3 
		198.8,62 	"/>
	<polygon class="st7" points="126.3,77.8 128.2,85.7 120.8,82.4 113.8,86.7 114.6,78.6 108.4,73.4 116.3,71.6 119.4,64 123.5,71.1 
		131.7,71.6 	"/>
	<polyline class="st8" points="192,216.6 173.1,228.9 157.9,205.3 176.8,193.1 192,216.6 	"/>
	<polyline class="st9" points="211.7,212.8 182.7,231.5 159.4,195.5 188.4,176.8 211.7,212.8 	"/>
	<polyline class="st10" points="342.1,131.4 192.9,227.8 167.1,187.7 316.3,91.3 342.1,131.4 	"/>
	<polyline class="st11" points="342.1,131.4 316.2,148.2 290.3,108.1 316.3,91.3 342.1,131.4 	"/>
	<path class="st12" d="M191.6,225.8l1.3,2L191.6,225.8 M329.2,111.3l12.9,20L329.2,111.3"/>
	<polyline class="st13" points="180,207.7 191.6,225.8 180,207.7 	"/>
	<polyline class="st14" points="303.2,128.1 180,207.7 191.6,225.8 192.9,227.8 267.5,179.6 316.2,148.2 303.2,128.1 	"/>
	<polyline class="st15" points="329.2,111.3 303.2,128.1 316.2,148.2 342.1,131.4 329.2,111.3 	"/>
	<path class="st16" d="M109.6,318.5V200.1c0-46.9,38-84.9,84.9-84.9c46.9,0,84.9,38,84.9,84.9v118.4H109.6"/>
	<polyline class="st11" points="109.6,295.9 109.6,318.5 279.4,318.5 279.4,295.9 109.6,295.9 	"/>
	<polyline class="st17" points="99.5,200.1 99.5,216 289.6,216 289.6,200.1 99.5,200.1 	"/>
	<polyline class="st11" points="109.6,249.4 109.6,256.6 279.4,256.6 279.4,249.4 109.6,249.4 	"/>
	<polyline class="st18" points="109.6,290.3 147,290.3 147,267.6 109.6,267.6 109.6,290.3 	"/>
	<polyline class="st18" points="153.8,290.3 191.1,290.3 191.1,267.6 153.8,267.6 153.8,290.3 	"/>
	<rect x="197.9" y="267.6" class="st18" width="37.4" height="22.7"/>
	<rect x="242.1" y="267.6" class="st18" width="37.3" height="22.7"/>
	<path class="st19" d="M279.4,200.1c0-46.9-38-84.9-84.9-84.9c-46.9,0-84.9,38-84.9,84.9H279.4"/>
	<path class="st11" d="M194.5,105.1c-52.5,0-95,42.6-95,95h20.3c0-20.7,8.4-39.3,21.9-52.8c13.5-13.5,32.2-21.9,52.8-21.9
		c20.7,0,39.3,8.3,52.8,21.9c13.5,13.5,21.9,32.2,21.9,52.8h20.3C289.6,147.6,247,105.1,194.5,105.1"/>
	<path class="st10" d="M194.5,115.2c-46.9,0-84.9,38-84.9,84.9h40.6c0-24.4,19.9-44.2,44.3-44.2c24.4,0,44.2,19.9,44.2,44.2h40.6
		C279.4,153.2,241.4,115.2,194.5,115.2"/>
	<path class="st20" d="M153.8,290.3v-22.7h37.4v22.7H153.8 M194.5,256.6h-84.9v11H147v22.7h-37.4v5.5h84.9V256.6 M194.5,216h-84.9
		v33.4h84.9V216"/>
	<polyline class="st21" points="194.5,295.9 109.6,295.9 109.6,318.5 194.5,318.5 194.5,295.9 	"/>
	<polyline class="st22" points="194.5,200.1 109.6,200.1 99.5,200.1 99.5,216 109.6,216 194.5,216 194.5,200.1 	"/>
	<polyline class="st21" points="194.5,249.4 109.6,249.4 109.6,256.6 194.5,256.6 194.5,249.4 	"/>
	<polyline class="st23" points="147,267.6 109.6,267.6 109.6,290.3 147,290.3 147,267.6 	"/>
	<polyline class="st23" points="191.1,267.6 153.8,267.6 153.8,290.3 191.1,290.3 191.1,267.6 	"/>
	<path class="st24" d="M194.5,155.9c-24.4,0-44.3,19.9-44.3,44.2h-30.5l0,0h-10.2l0,0h84.9V155.9L194.5,155.9"/>
	<path class="st21" d="M194.5,105.1c-49.8,0-90.6,38.3-94.7,87c-0.2,2.7-0.3,5.4-0.3,8.1h10.2h10.2l0,0h-10.2
		c0-46.9,38-84.9,84.9-84.9l0,0V105.1L194.5,105.1"/>
	<path class="st25" d="M194.5,115.2c-46.9,0-84.9,38-84.9,84.9h10.2h30.5c0-24.4,19.9-44.2,44.3-44.2l0,0V115.2L194.5,115.2"/>
	<polygon class="st26" points="286.5,315.6 286.5,312.7 103.4,312.7 103.4,295 283.6,295 283.6,315.6 286.5,315.6 286.5,312.7 
		286.5,315.6 289.4,315.6 289.4,292.1 288.6,290.1 286.5,289.2 100.5,289.2 98.5,290.1 97.7,292.1 97.7,315.6 98.5,317.6 
		100.5,318.5 286.5,318.5 288.6,317.6 289.4,315.6 	"/>
	<path class="st26" d="M141,315.6v-23.5c0-1.6-1.3-2.9-2.9-2.9c-1.6,0-2.9,1.3-2.9,2.9v23.5c0,1.6,1.3,2.9,2.9,2.9
		C139.7,318.5,141,317.2,141,315.6"/>
	<path class="st26" d="M254.2,315.6v-23.5c0-1.6-1.3-2.9-2.9-2.9c-1.6,0-2.9,1.3-2.9,2.9v23.5c0,1.6,1.3,2.9,2.9,2.9
		C252.9,318.5,254.2,317.2,254.2,315.6"/>
	<path class="st26" d="M216.5,315.6v-23.5c0-1.6-1.3-2.9-2.9-2.9s-2.9,1.3-2.9,2.9v23.5c0,1.6,1.3,2.9,2.9,2.9
		S216.5,317.2,216.5,315.6"/>
	<path class="st26" d="M178.8,315.6v-23.5c0-1.6-1.3-2.9-2.9-2.9c-1.6,0-2.9,1.3-2.9,2.9v23.5c0,1.6,1.3,2.9,2.9,2.9
		C177.5,318.5,178.8,317.2,178.8,315.6"/>
</g>
</svg>
